<svg version="1.1" id="Layer_1" xmlns="http://www.w3.org/2000/svg" xmlns:xlink="http://www.w3.org/1999/xlink" x="0px" y="0px"
	 width="100%" viewBox="0 0 500 500" enable-background="new 0 0 500 500" xml:space="preserve">
<path fill="#FFFFFF" opacity="1.000000" stroke="none" 
	d="
M319.000000,501.000000 
	C214.000031,501.000000 109.500031,500.978485 5.000182,501.095459 
	C1.576317,501.099274 0.903035,500.423889 0.905299,497.000031 
	C1.013777,333.000122 1.013757,169.000137 0.905338,5.000257 
	C0.903075,1.576978 1.575764,0.903020 4.999866,0.905285 
	C168.999756,1.013775 332.999725,1.013760 496.999634,0.905354 
	C500.422638,0.903091 501.096985,1.575412 501.094727,4.999747 
	C500.986206,168.999634 500.986237,332.999603 501.094604,496.999512 
	C501.096893,500.422272 500.425995,501.104797 497.000214,501.096985 
	C437.833710,500.962219 378.666809,501.000000 319.000000,501.000000 
z"/>
<path fill="#060606" opacity="1.000000" stroke="none" 
	d="
M263.097839,212.552887 
	C262.093536,193.602585 270.455658,182.298126 288.668549,177.832626 
	C302.118530,174.534927 315.128876,175.788513 327.276337,182.721832 
	C335.476044,187.401901 339.948486,193.917358 341.614899,202.803207 
	C340.447266,202.873169 339.290680,202.874954 338.152924,203.022308 
	C333.179443,203.666458 329.671997,202.930710 328.425873,196.826172 
	C327.468414,192.135742 323.375732,189.042862 318.958740,187.134369 
	C308.202423,182.486801 297.308624,182.290833 286.525543,187.011169 
	C279.959412,189.885513 275.815277,194.872269 275.203552,202.204636 
	C274.608948,209.332001 278.352753,214.120956 284.079590,217.776474 
	C292.002930,222.834015 300.805206,225.851791 309.586304,228.906799 
	C318.093658,231.866577 326.207031,235.465179 333.638275,240.718811 
	C352.943939,254.367203 349.585052,284.110931 328.228729,293.729401 
	C309.859253,302.002655 291.286224,301.191376 273.491211,291.554138 
	C265.186066,287.056335 260.091919,279.816101 258.325043,270.365448 
	C257.857849,267.866516 258.238129,266.563446 261.134186,266.946411 
	C262.443634,267.119598 263.811401,267.109314 265.124146,266.948822 
	C268.209686,266.571503 269.671387,267.284180 270.248444,270.911987 
	C271.824646,280.820496 278.463165,286.761749 287.647247,289.532654 
	C297.905884,292.627747 308.414612,292.586060 318.587738,288.986328 
	C333.502838,283.708649 336.974030,265.506683 325.261230,254.751556 
	C318.225647,248.291214 309.464630,245.060959 300.664459,241.994263 
	C292.816437,239.259354 284.928589,236.628113 277.840851,232.171234 
	C270.591248,227.612579 264.654999,221.986069 263.097839,212.552887 
z"/>
<path fill="#060606" opacity="1.000000" stroke="none" 
	d="
M246.463989,210.739960 
	C246.982758,233.523697 232.543381,248.652237 209.464127,249.964722 
	C202.134567,250.381546 194.794113,250.291168 187.667313,248.323669 
	C184.155121,247.354050 183.481735,248.495407 183.519501,251.813095 
	C183.674759,265.454712 183.456970,279.101135 183.671005,292.741180 
	C183.726730,296.291687 182.674667,297.136261 179.236893,297.097260 
	C168.066116,296.970428 168.065598,297.115326 168.064255,286.154907 
	C168.061447,263.360474 168.057343,240.566025 168.002106,217.293823 
	C166.951767,214.117661 169.305359,213.412872 170.788452,212.484512 
	C173.714722,210.652740 176.476395,208.616089 179.529602,206.312500 
	C180.775925,205.533722 181.750488,205.230103 183.142288,205.850296 
	C184.694534,214.636307 185.253937,223.224167 185.333740,231.840073 
	C185.411819,240.267624 185.363266,240.225693 193.984268,240.700943 
	C197.788208,240.910645 201.519272,241.342636 205.394897,240.837357 
	C215.565674,239.511353 222.923004,234.425491 226.617310,224.947662 
	C230.707321,214.454681 228.598419,204.705414 221.528717,195.972885 
	C217.908813,191.501556 212.857712,189.394257 207.453369,187.098663 
	C207.023102,186.633743 206.881790,186.424423 206.678940,185.846436 
	C208.446152,183.290802 209.587524,180.817932 210.036240,177.692413 
	C221.706909,176.918732 231.188202,181.139587 239.428009,189.348083 
	C241.871323,193.966568 242.033218,198.794357 243.085739,203.390137 
	C243.681213,205.990265 244.380676,208.443497 246.463989,210.739960 
z"/>
<path fill="#5D8ED4" opacity="1.000000" stroke="none" 
	d="
M173.731995,141.368195 
	C182.078796,139.111679 190.143188,137.092850 198.608902,135.103241 
	C200.122299,137.936081 197.575333,138.409592 196.129837,139.355453 
	C189.792740,143.502167 183.043442,146.967041 176.612122,150.966141 
	C174.781479,152.104462 172.986557,153.237350 171.396729,155.232117 
	C168.988510,156.765701 166.543137,157.084244 163.842346,157.774429 
	C160.501266,157.353653 158.052444,158.043518 156.373993,161.225403 
	C151.583618,164.186646 147.095016,166.978851 142.624878,169.792526 
	C138.171387,172.595688 136.045898,177.507721 132.560486,181.704987 
	C127.851852,184.327805 123.106941,185.779358 117.710793,186.416840 
	C114.193184,186.672546 111.290909,188.356293 107.697456,187.708618 
	C105.382652,185.600128 107.215790,184.360992 108.193199,182.915344 
	C115.106789,172.689789 124.965736,166.202545 135.739471,160.700684 
	C148.288025,154.292465 161.244873,148.690002 173.731995,141.368195 
z"/>
<path fill="#FDFDFD" opacity="1.000000" stroke="none" 
	d="
M239.261810,190.261536 
	C231.303848,182.593582 221.783585,178.856293 210.468597,178.316772 
	C203.632111,174.104996 202.734955,168.123764 207.800552,162.974518 
	C213.368149,157.315033 219.084793,151.802811 224.890656,145.874207 
	C227.823135,145.911850 228.134796,148.153305 228.776581,149.910278 
	C231.135605,156.368317 232.952728,163.015198 235.747070,169.698273 
	C235.994553,169.985794 236.000793,170.414627 236.001328,170.629059 
	C236.624512,175.255722 238.754150,179.253525 239.520966,183.624466 
	C239.888550,185.719635 240.563797,187.821136 239.261810,190.261536 
z"/>
<path fill="#6C98DD" opacity="1.000000" stroke="none" 
	d="
M173.617340,141.091125 
	C172.785049,145.239243 168.726837,146.042969 165.682938,147.465179 
	C150.813461,154.412628 135.962952,161.396667 122.035606,170.100174 
	C115.671394,174.077286 111.812683,180.706924 107.075302,186.734833 
	C107.077805,188.824127 105.672981,189.335464 104.471786,189.585037 
	C98.687813,190.786835 93.182365,193.152054 86.863792,193.613373 
	C83.837387,191.193466 85.659203,189.205154 87.277664,187.664673 
	C99.799034,175.746628 112.150993,163.667236 128.902710,157.434113 
	C136.667664,154.544861 143.754364,150.008041 151.710175,146.537262 
	C159.089386,144.577850 166.154831,142.814789 173.617340,141.091125 
z"/>
<path fill="#135FA3" opacity="1.000000" stroke="none" 
	d="
M180.228378,206.720093 
	C176.890076,211.123703 171.501999,212.311707 168.088440,216.516479 
	C165.560623,217.895599 163.170822,218.975128 160.420959,220.071594 
	C158.292831,218.696121 157.610535,216.574265 156.541473,214.730682 
	C152.254944,207.338654 146.896973,201.594528 137.130615,201.624298 
	C135.234283,200.267273 134.323196,198.755447 134.568542,196.377808 
	C144.516006,196.049332 153.741104,197.671051 160.664902,205.551987 
	C161.651581,206.675034 162.483017,207.924469 163.490875,209.032303 
	C165.208313,210.920059 167.025574,211.086517 168.379700,208.836853 
	C173.194077,200.838455 179.229538,193.775986 185.054398,186.540283 
	C187.657700,183.306412 187.901352,179.176971 188.728027,175.286942 
	C189.118652,173.448715 189.074280,170.977554 192.460526,172.210388 
	C193.986923,177.179031 193.504700,181.791840 192.278107,186.775574 
	C191.075882,193.128555 187.391129,197.568512 183.516479,201.917145 
	C182.310532,203.270630 181.306076,204.799942 180.228378,206.720093 
z"/>
<path fill="#78A1E3" opacity="1.000000" stroke="none" 
	d="
M151.639221,146.322510 
	C151.404678,148.687485 149.088593,148.832001 147.438614,149.755219 
	C135.464355,156.455276 122.433762,161.048248 110.774620,168.438248 
	C104.200661,172.605103 99.303398,178.428391 93.859406,183.721039 
	C91.108185,186.395782 86.683334,187.578278 85.987442,192.539185 
	C84.027252,194.865768 81.757027,195.357208 78.908432,193.986298 
	C86.549835,184.145950 96.678963,176.770645 104.401466,167.303101 
	C114.850807,154.492554 129.082230,150.933640 143.983017,148.037155 
	C146.426788,147.562119 148.831635,146.886826 151.639221,146.322510 
z"/>
<path fill="#3E7CC9" opacity="1.000000" stroke="none" 
	d="
M221.714279,129.519257 
	C228.753876,127.614769 235.480789,125.911987 242.590179,124.196945 
	C244.006882,125.328133 243.420990,126.453384 242.637344,127.247650 
	C236.777008,133.187408 231.528687,139.776001 224.170654,144.659668 
	C223.577820,144.885590 223.333435,144.960938 222.711182,145.116272 
	C218.414474,145.451187 214.737839,147.023361 210.433502,147.331268 
	C206.359970,147.273178 202.913467,148.920319 198.859100,148.718384 
	C195.992798,145.603470 198.642471,143.935349 200.489716,142.788589 
	C207.472961,138.453415 213.871552,133.173935 221.714279,129.519257 
z"/>
<path fill="#5085CC" opacity="1.000000" stroke="none" 
	d="
M221.643616,129.305878 
	C216.317093,134.575821 209.475311,138.204926 203.050232,142.426849 
	C200.953659,143.804504 198.730789,144.915436 198.001587,147.958984 
	C195.166702,151.632553 190.824402,151.021835 186.981155,152.682404 
	C186.205627,153.056046 185.747040,153.236588 184.916382,153.479477 
	C180.036484,152.976562 176.100372,156.342163 171.271027,155.220886 
	C171.176605,152.398422 173.248016,151.610535 175.052185,150.434067 
	C182.866531,145.338501 191.564606,141.684464 198.949768,135.465012 
	C206.426910,133.186371 213.843597,131.240280 221.643616,129.305878 
z"/>
<path fill="#3E7CC9" opacity="1.000000" stroke="none" 
	d="
M135.227234,195.754623 
	C135.577957,197.465210 136.146378,198.924515 136.857101,200.691299 
	C137.516983,201.416275 138.060532,201.900360 138.668503,202.056992 
	C148.240707,204.523438 152.495758,212.071045 156.050552,220.586212 
	C146.058044,221.992050 137.414093,215.889511 134.150482,205.582489 
	C132.217590,199.478149 131.589249,192.993958 128.433823,186.956329 
	C128.015884,185.795532 128.658539,185.565842 129.779449,185.523407 
	C132.183136,186.654404 133.074036,188.578552 133.950317,190.915894 
	C134.299088,192.091797 134.640991,192.897263 135.342209,193.898193 
	C135.583237,194.635361 135.574265,195.071365 135.227234,195.754623 
z"/>
<path fill="#1E6097" opacity="1.000000" stroke="none" 
	d="
M360.280823,343.467346 
	C352.965668,342.998474 350.107849,335.007202 352.205200,328.385956 
	C354.108917,322.376099 359.568298,320.722687 366.961823,323.772003 
	C367.914856,321.377991 367.229919,318.884644 367.438171,316.462372 
	C367.544220,315.229309 367.678284,314.161285 369.322083,314.137573 
	C371.084595,314.112183 371.035583,315.317078 371.037476,316.480988 
	C371.050629,324.610504 371.039185,332.740021 371.052948,340.869537 
	C371.055145,342.161682 370.541748,343.736481 369.256439,342.906677 
	C366.063019,340.845001 363.534485,343.863464 360.280823,343.467346 
z"/>
<path fill="#1E6097" opacity="1.000000" stroke="none" 
	d="
M301.350983,327.605286 
	C305.671661,329.671387 308.218597,332.475830 307.080231,337.211243 
	C306.013123,341.650269 302.503479,343.118347 298.458130,343.399811 
	C293.831055,343.721741 289.419189,343.126129 286.794861,338.536102 
	C286.350372,337.758728 285.436340,336.665771 286.723236,335.985779 
	C287.972229,335.325836 288.624176,336.055756 289.256866,337.372650 
	C291.509277,342.060883 295.609375,342.029785 299.933624,341.135956 
	C301.904968,340.728485 303.260132,339.592499 303.725281,337.631165 
	C304.239319,335.463715 303.380188,333.710419 301.676575,332.386627 
	C299.134399,330.411194 295.960175,329.801544 293.099731,328.511108 
	C289.588287,326.926971 286.517670,324.851440 287.212189,320.363922 
	C287.829712,316.373871 290.655457,314.421051 294.465302,313.957123 
	C298.775452,313.432251 302.812561,313.945648 305.489807,317.993774 
	C305.955963,318.698639 306.416351,319.619812 305.351318,320.054657 
	C304.339447,320.467834 303.527252,319.944580 302.981964,318.879242 
	C301.177917,315.354584 297.939789,315.610931 294.745544,315.950439 
	C292.561401,316.182617 290.945740,317.393341 290.411041,319.513458 
	C289.822144,321.848358 291.299103,323.306946 293.225159,324.193695 
	C295.779602,325.369751 298.420319,326.358307 301.350983,327.605286 
z"/>
<path fill="#1E6097" opacity="1.000000" stroke="none" 
	d="
M121.486618,337.722046 
	C121.477837,339.180298 121.437149,340.175629 121.468048,341.168732 
	C121.517929,342.771454 120.589561,343.075684 119.236488,343.026733 
	C117.865402,342.977081 117.663231,342.121460 117.663513,341.041870 
	C117.665665,332.754547 117.660637,324.467194 117.673248,316.179871 
	C117.674858,315.117950 117.947861,314.122833 119.270996,314.154816 
	C123.549744,314.258209 127.974510,313.321350 132.033829,315.226685 
	C135.777145,316.983704 137.222275,320.266541 136.618759,324.271484 
	C135.944397,328.746338 132.148666,332.145233 126.846382,331.562317 
	C121.587280,330.984131 120.976059,333.202087 121.486618,337.722046 
z"/>
<path fill="#D7C170" opacity="1.000000" stroke="none" 
	d="
M239.014786,190.948547 
	C238.958923,184.138901 235.967056,178.169388 235.952087,171.284790 
	C240.858398,181.264328 245.507324,191.789413 250.664398,202.059341 
	C253.024124,206.758545 252.167633,209.282806 246.936951,210.824951 
	C244.168686,210.425888 243.073700,208.846741 242.482025,206.276276 
	C241.334122,201.289200 241.260651,196.049118 239.014786,190.948547 
z"/>
<path fill="#1E6097" opacity="1.000000" stroke="none" 
	d="
M232.701309,322.313721 
	C238.215118,321.399811 242.395584,322.940613 244.839981,327.644653 
	C247.017303,331.834747 246.605621,336.094971 243.608871,339.795166 
	C240.675964,343.416504 236.659668,344.234955 232.332275,343.014069 
	C227.879257,341.757721 225.424606,338.576843 224.931717,334.003876 
	C224.342651,328.538696 226.584412,325.118347 232.701309,322.313721 
z"/>
<path fill="#2A699D" opacity="1.000000" stroke="none" 
	d="
M382.524597,331.379791 
	C383.538788,333.501038 384.363892,335.293762 385.362823,337.464142 
	C388.692322,332.489105 389.375183,326.685455 393.175781,321.740356 
	C394.066101,324.532135 392.695801,326.139008 392.023224,327.813446 
	C389.117401,335.047882 386.132599,342.250977 383.124695,349.443817 
	C381.985413,352.168091 380.136139,353.859955 376.913452,352.986603 
	C376.108795,352.768555 375.234344,352.317230 375.471405,351.339539 
	C375.683807,350.463562 375.881165,349.462097 377.194977,349.241760 
	C382.688904,348.320374 384.548370,344.775726 382.269623,339.605164 
	C380.262146,335.050171 378.107605,330.558594 376.181000,325.970581 
	C375.750214,324.944672 374.019958,323.514771 375.794617,322.560822 
	C377.608643,321.585632 378.817322,322.892334 379.529633,324.671783 
	C380.392456,326.827271 381.393982,328.927246 382.524597,331.379791 
z"/>
<path fill="#1E6097" opacity="1.000000" stroke="none" 
	d="
M150.792816,322.472260 
	C155.084351,322.639221 156.731995,325.260406 156.885757,328.981720 
	C157.043533,332.800140 156.985275,336.628601 156.968109,340.452423 
	C156.963318,341.521881 157.115356,343.513702 155.564972,342.872864 
	C152.440628,341.581512 149.845428,343.500671 146.997513,343.514160 
	C142.478348,343.535522 139.376175,340.290070 139.720856,335.920593 
	C140.061081,331.607635 144.132797,328.463898 148.543015,329.253510 
	C149.988861,329.512360 151.361786,330.178558 152.939026,330.716797 
	C153.794266,328.302582 153.293854,326.214325 151.348969,324.097595 
	C150.677185,323.571899 150.520447,323.189148 150.792816,322.472260 
z"/>
<path fill="#3477C5" opacity="1.000000" stroke="none" 
	d="
M78.404327,193.828339 
	C80.933617,194.614182 82.952301,192.769119 85.571152,192.947388 
	C92.829208,191.134018 99.679565,189.367844 106.794327,187.344070 
	C110.274750,187.102997 113.225525,185.854340 116.679153,185.146790 
	C118.068565,187.843277 115.736320,188.048630 114.265991,188.600479 
	C111.453407,189.656158 108.425743,190.113861 105.873123,191.818237 
	C96.883705,194.306549 87.781700,196.588058 78.670891,198.833817 
	C77.554565,199.108978 76.383545,199.371429 75.833015,197.784760 
	C75.045303,195.514511 77.181091,195.167999 78.404327,193.828339 
z"/>
<path fill="#1E6097" opacity="1.000000" stroke="none" 
	d="
M262.291077,339.918823 
	C260.964050,338.169769 259.871552,336.705780 258.706635,335.144806 
	C255.109360,336.870514 254.707535,341.948212 250.459839,343.100739 
	C250.371643,342.531006 250.200394,342.125061 250.308975,342.026093 
	C257.211090,335.735321 257.696442,329.467468 249.691895,323.501129 
	C252.682617,321.389191 253.976776,322.926605 255.372818,324.709473 
	C259.224396,329.628296 259.247040,329.585693 263.330872,324.582947 
	C264.096130,323.645508 264.571930,322.111847 266.359253,322.634155 
	C260.163940,329.840179 260.934326,336.431885 268.837646,342.153687 
	C265.215515,343.988190 263.786255,342.296478 262.291077,339.918823 
z"/>
<path fill="#2A699D" opacity="1.000000" stroke="none" 
	d="
M319.726135,322.094849 
	C321.199188,322.402161 322.449493,321.999390 323.804565,323.629944 
	C317.813599,323.257202 318.630890,327.126343 318.723419,330.593994 
	C318.776733,332.591797 318.598114,334.604187 318.772614,336.588135 
	C318.982880,338.979248 318.075775,343.117218 322.862152,339.861877 
	C323.656464,339.321686 324.188965,339.772583 324.523102,340.231903 
	C325.167328,341.117432 324.507751,341.664581 323.790955,342.189026 
	C320.388062,344.678833 315.530304,342.212067 315.073761,337.533813 
	C314.767639,334.396942 314.817383,331.199188 315.012878,328.047607 
	C315.174377,325.443451 314.808289,323.549622 310.457428,323.839478 
	C312.999207,322.094025 315.777924,322.014648 315.036255,318.997681 
	C314.772858,317.926147 314.427917,316.139465 316.594940,316.044830 
	C318.931427,315.942749 318.621338,317.647247 318.753326,319.126221 
	C318.838837,320.084839 319.128906,321.025238 319.726135,322.094849 
z"/>
<path fill="#1D69B3" opacity="1.000000" stroke="none" 
	d="
M156.318985,220.988617 
	C152.803848,219.179199 152.384232,215.664246 150.962219,212.836121 
	C148.925140,208.784744 146.116882,205.757950 141.512039,205.164703 
	C139.132828,204.858170 138.129364,203.494904 137.134216,201.329773 
	C148.604446,199.179550 155.535324,208.715332 160.038330,219.711655 
	C160.060928,220.088547 160.120941,220.108383 160.115356,220.139496 
	C159.592575,220.363129 159.057327,220.481339 158.269760,220.687500 
	C157.572571,220.888412 157.117828,220.960739 156.318985,220.988617 
z"/>
<path fill="#2A699D" opacity="1.000000" stroke="none" 
	d="
M214.669922,324.729126 
	C217.043762,322.035065 215.474136,319.140381 215.930237,316.502777 
	C216.126404,315.368408 215.893097,314.122375 217.648453,314.110199 
	C219.185135,314.099548 219.686325,314.956451 219.687241,316.293121 
	C219.692886,324.579895 220.100342,332.895721 219.521286,341.141998 
	C219.200531,345.709869 216.297256,341.295959 214.302429,341.800873 
	C213.482254,341.772461 213.078583,341.504364 212.709412,340.730225 
	C214.844543,336.141327 215.208054,331.732788 213.975342,326.793213 
	C214.047684,325.926300 214.197220,325.454834 214.669922,324.729126 
z"/>
<path fill="#1E6097" opacity="1.000000" stroke="none" 
	d="
M212.544464,340.654755 
	C213.090164,341.086426 213.390823,341.274170 213.829987,341.691498 
	C209.152649,344.351929 204.988022,343.645050 202.194382,339.922668 
	C199.132645,335.843048 199.288544,328.923920 202.527603,325.132751 
	C205.576767,321.563873 209.588135,321.123688 214.705414,324.137085 
	C214.915085,324.882141 214.905777,325.310547 214.869049,326.059204 
	C212.027466,326.316528 208.943924,324.708282 206.721649,327.921326 
	C204.841476,330.639771 205.108551,333.470459 205.989212,336.427582 
	C206.948044,339.647217 209.935883,339.500610 212.544464,340.654755 
z"/>
<path fill="#2A699D" opacity="1.000000" stroke="none" 
	d="
M188.617126,330.331390 
	C190.066544,330.662750 191.222137,331.256683 191.086792,329.146210 
	C190.945160,326.937897 190.812363,324.674042 188.182800,323.992035 
	C185.772751,323.366974 183.599564,323.922028 181.932159,325.951965 
	C181.324356,326.691864 180.681992,327.634094 179.579483,326.519867 
	C178.284912,325.211487 179.342270,324.422638 180.282440,323.772949 
	C183.531448,321.527832 187.090454,321.376343 190.699081,322.639954 
	C193.854645,323.744873 194.603149,326.496948 194.716248,329.433289 
	C194.850037,332.906616 194.755310,336.388184 194.849121,339.863739 
	C194.946045,343.454468 193.509720,343.980499 190.331833,341.956421 
	C189.478928,341.728333 189.088730,341.493988 188.711258,340.780029 
	C189.663574,337.617065 190.214111,334.833771 187.833038,331.960022 
	C187.710297,331.140533 187.908386,330.745575 188.617126,330.331390 
z"/>
<path fill="#2A699D" opacity="1.000000" stroke="none" 
	d="
M169.316727,325.284424 
	C165.592316,329.789948 167.692001,334.823273 167.049042,339.483795 
	C166.874496,340.748993 167.973907,342.767029 165.587433,342.999420 
	C162.863708,343.264679 163.416992,341.105377 163.400192,339.563232 
	C163.349487,334.905365 163.371017,330.246552 163.390488,325.588165 
	C163.394547,324.617004 163.608078,322.735901 163.922638,322.892365 
	C167.480667,324.662079 170.830185,320.609070 174.294373,322.646515 
	C175.152039,323.150970 175.369659,323.846710 175.007523,324.731079 
	C174.588181,325.755219 173.839111,325.752075 173.004761,325.283875 
	C171.917282,324.673706 170.808960,324.582550 169.316727,325.284424 
z"/>
<path fill="#1E6097" opacity="1.000000" stroke="none" 
	d="
M340.291412,341.729980 
	C333.285858,345.200287 329.009491,342.659973 328.811584,335.371094 
	C328.725952,332.217529 328.717133,329.057648 328.817627,325.905243 
	C328.859497,324.591187 328.031464,322.494843 330.405609,322.445374 
	C333.167145,322.387817 332.181091,324.726837 332.249023,326.164764 
	C332.382141,328.982147 332.234161,331.811523 332.303314,334.633453 
	C332.439301,340.184448 333.599426,341.207886 339.606140,340.757874 
	C340.196899,340.880829 340.370178,341.121857 340.291412,341.729980 
z"/>
<path fill="#69A7F7" opacity="1.000000" stroke="none" 
	d="
M224.087036,143.976395 
	C230.973785,138.062408 237.334518,131.845413 242.950867,124.520630 
	C244.358658,123.715042 245.631622,123.758049 246.370087,125.231445 
	C247.050781,126.589569 245.981384,127.398148 245.184708,128.181778 
	C239.644409,133.631149 234.075653,139.051590 228.221130,144.715759 
	C226.521637,145.631607 225.348007,144.985718 224.087036,143.976395 
z"/>
<path fill="#1D69B3" opacity="1.000000" stroke="none" 
	d="
M106.261780,192.044922 
	C105.348541,191.926712 104.405678,192.040771 104.128395,191.664429 
	C103.430313,190.716965 104.654106,190.715225 105.058296,190.523193 
	C108.895035,188.700439 113.392342,188.534561 116.973557,185.479034 
	C122.170052,185.121521 126.643906,182.549744 131.778809,181.327866 
	C133.760681,179.459915 135.810913,178.971069 138.463623,179.436447 
	C140.388397,184.230835 135.441055,183.041595 133.683334,185.207062 
	C132.906815,185.645432 132.426804,185.796127 131.554535,185.878281 
	C129.508301,185.306732 127.916817,185.342361 126.247025,186.803238 
	C120.920914,189.340347 115.304298,189.540512 109.652603,191.160400 
	C108.697838,191.352203 108.126472,191.476852 107.296402,191.709167 
	C106.877228,191.927429 106.706192,191.990692 106.261780,192.044922 
z"/>
<path fill="#2A699D" opacity="1.000000" stroke="none" 
	d="
M340.459137,341.993164 
	C340.034943,341.854248 340.030487,341.611481 340.024841,341.004272 
	C342.490906,338.343872 342.308411,335.327576 342.293701,332.348419 
	C342.280609,329.706940 342.296173,327.065247 342.311462,324.423737 
	C342.317871,323.315704 342.744141,322.498047 343.958740,322.370056 
	C345.076263,322.252319 345.976379,322.579620 345.982635,323.881714 
	C346.011169,329.824066 346.564209,335.841064 345.795715,341.682159 
	C345.308075,345.388733 342.571594,341.415894 340.459137,341.993164 
z"/>
<path fill="#1E6097" opacity="1.000000" stroke="none" 
	d="
M188.616547,330.048065 
	C188.796921,330.522339 188.570740,330.743134 188.054047,330.986206 
	C187.627151,331.335480 187.400970,331.576416 187.112045,331.713379 
	C184.750473,332.833069 182.050583,333.851410 182.643661,337.172974 
	C183.203690,340.309326 186.105911,340.057251 188.678268,340.750488 
	C189.238907,341.061554 189.496887,341.219513 189.827484,341.646027 
	C186.179413,344.153748 182.416458,344.458191 179.160248,341.136353 
	C176.834717,338.763977 176.630219,335.675903 178.397873,332.920135 
	C180.734192,329.277802 184.161087,328.219666 188.616547,330.048065 
z"/>
<path fill="#D7C170" opacity="1.000000" stroke="none" 
	d="
M223.772247,143.784027 
	C225.137573,144.023575 226.282654,144.392868 227.677002,144.856201 
	C230.589264,153.036621 233.252258,161.123016 235.954895,169.597595 
	C233.344788,169.213821 233.700104,166.607315 232.944077,164.763351 
	C230.458099,158.700089 229.524536,152.040710 225.585388,146.299683 
	C224.524582,146.571640 223.888885,146.322617 223.052429,145.605560 
	C222.757675,145.100311 222.694717,144.869446 222.847702,144.351837 
	C223.226425,144.014664 223.389206,143.964218 223.772247,143.784027 
z"/>
<path fill="#2A699D" opacity="1.000000" stroke="none" 
	d="
M150.601746,322.116028 
	C151.017929,322.589020 151.021301,322.954987 151.033096,323.595276 
	C148.357056,323.640839 145.777863,323.671173 143.988739,326.210266 
	C143.293335,327.197144 142.450363,327.285583 141.598312,326.297699 
	C140.588959,325.127472 141.616241,324.535431 142.305603,323.949371 
	C144.596909,322.001343 147.348419,321.795258 150.601746,322.116028 
z"/>
<path fill="#0C5696" opacity="1.000000" stroke="none" 
	d="
M126.358963,187.066071 
	C126.325737,184.208221 128.575592,185.224350 130.591782,184.979980 
	C131.220139,185.406647 131.131790,185.759644 130.451187,186.013763 
	C129.572922,186.085724 129.010757,186.198944 128.273315,186.537598 
	C127.636368,186.865723 127.174690,186.968384 126.358963,187.066071 
z"/>
<path fill="#3E7CC9" opacity="1.000000" stroke="none" 
	d="
M158.316498,220.877106 
	C158.527924,220.564301 159.028534,220.312485 159.819443,220.115662 
	C159.608398,220.426453 159.107040,220.682266 158.316498,220.877106 
z"/>
<path fill="#3477C5" opacity="1.000000" stroke="none" 
	d="
M107.351440,191.905121 
	C107.578560,191.600052 108.108856,191.335922 108.947990,191.121964 
	C108.722755,191.430099 108.188683,191.688080 107.351440,191.905121 
z"/>
<path fill="#FDFDFD" opacity="1.000000" stroke="none" 
	d="
M206.897888,185.744629 
	C228.616684,191.170868 232.822617,211.391037 228.562759,224.000610 
	C225.126038,234.173630 217.982422,240.164520 207.420731,242.139221 
	C200.933395,243.352142 194.501923,242.520233 188.059906,241.793365 
	C184.781738,241.423508 183.358658,239.993759 183.472168,236.297363 
	C183.778168,226.333145 183.571564,216.353195 183.544037,205.874207 
	C183.450287,201.685333 186.912125,200.904144 189.103424,198.647141 
	C191.166748,196.787659 192.852951,195.002075 195.218689,193.510254 
	C196.755188,192.444962 198.102402,191.682770 199.456589,190.360626 
	C201.919952,188.504990 203.794754,186.360565 206.897888,185.744629 
z"/>
<path fill="#69A7F7" opacity="1.000000" stroke="none" 
	d="
M222.795441,144.965149 
	C223.648544,145.279739 224.155121,145.636932 224.960999,146.095398 
	C224.365326,149.662003 221.159943,151.184921 218.986893,153.560791 
	C216.652374,156.113190 214.073135,158.442200 211.593567,160.861389 
	C203.790802,168.474121 203.789520,168.472794 209.793076,178.102264 
	C211.448746,181.242523 210.621140,183.408371 207.584961,185.076752 
	C204.775742,185.699310 203.715286,183.877411 202.861633,182.160904 
	C201.123444,178.665802 199.187790,175.238327 198.217438,171.032547 
	C198.220276,167.932678 201.966827,168.043579 202.241226,165.114182 
	C206.006149,158.455627 212.152588,154.386215 217.082993,148.723328 
	C218.894287,147.112442 220.199677,145.361450 222.795441,144.965149 
z"/>
<path fill="#3E7CC9" opacity="1.000000" stroke="none" 
	d="
M198.590942,169.698532 
	C201.085220,175.141251 202.233292,180.835999 206.951691,185.034760 
	C207.280930,185.206329 207.356445,185.557617 207.285980,185.722900 
	C205.023193,187.523331 202.830902,189.158493 200.320923,190.900299 
	C197.386398,184.461105 195.264755,177.800720 195.515182,170.269196 
	C196.490158,169.306198 197.330505,169.210709 198.590942,169.698532 
z"/>
<path fill="#2A699D" opacity="1.000000" stroke="none" 
	d="
M190.208588,198.614700 
	C188.398956,201.421936 185.189209,202.227966 183.707092,205.170471 
	C182.592468,205.822952 181.665253,206.277008 180.383026,206.886292 
	C179.655487,201.745544 184.552582,199.597748 186.885101,195.946671 
	C188.423828,193.538101 189.853775,191.256775 190.736115,188.252472 
	C193.272873,188.230118 192.819168,189.942795 192.687775,191.296738 
	C192.448334,193.764221 191.575684,196.066681 190.208588,198.614700 
z"/>
<path fill="#5085CC" opacity="1.000000" stroke="none" 
	d="
M139.363007,180.321869 
	C137.002457,180.443985 134.921555,180.746521 132.442505,181.060852 
	C134.617447,176.727325 136.956635,172.046295 141.309143,169.277512 
	C145.873718,166.373810 150.201660,163.003235 155.685104,160.997025 
	C157.637527,160.548157 158.505066,161.600037 159.617035,162.923096 
	C161.759262,167.200226 161.381882,170.980865 158.826447,174.952240 
	C156.707626,177.295380 154.189621,177.820847 151.244080,178.240417 
	C150.172775,178.350250 149.461823,178.388474 148.461395,178.746948 
	C146.867065,179.360870 145.593079,179.848969 143.902634,180.109680 
	C142.915253,180.261703 142.256653,180.348175 141.283157,180.568298 
	C140.510071,180.678543 140.071930,180.633896 139.363007,180.321869 
z"/>
<path fill="#135FA3" opacity="1.000000" stroke="none" 
	d="
M159.299316,163.363785 
	C158.164307,162.523621 157.385803,161.882217 156.332703,161.116470 
	C157.122467,158.279892 157.686646,154.820358 162.365372,157.036926 
	C167.294113,157.397293 171.590332,155.501816 176.485916,155.478699 
	C177.027649,155.861511 177.194382,156.078247 177.405655,156.703064 
	C177.275360,157.763519 176.967209,158.416031 176.331009,158.620209 
	C170.810043,160.392090 165.317978,162.266220 159.299316,163.363785 
z"/>
<path fill="#D7C170" opacity="1.000000" stroke="none" 
	d="
M177.327393,155.854004 
	C172.294403,156.015305 167.995621,158.616287 162.948380,157.415939 
	C165.227570,156.456314 167.748840,155.837280 170.634766,155.092300 
	C175.476395,154.991806 179.390549,151.913010 184.262207,152.809784 
	C183.212296,155.668655 182.959869,155.778091 177.327393,155.854004 
z"/>
<path fill="#0C5696" opacity="1.000000" stroke="none" 
	d="
M138.991699,180.473679 
	C139.501022,180.088699 139.918701,180.035965 140.652130,179.964462 
	C141.568802,179.973846 142.122284,179.837524 142.846252,179.300110 
	C144.475784,178.777802 145.868729,178.427444 147.619568,178.035858 
	C148.572815,177.992310 149.124344,177.848099 149.853302,177.330719 
	C152.636658,177.069641 155.000305,176.257156 157.679016,175.219666 
	C162.316422,172.053436 167.479813,171.689926 172.351822,170.436249 
	C175.045319,169.743149 177.689224,168.875427 180.788605,168.103851 
	C186.359985,167.030807 191.536484,166.088867 196.582962,164.549683 
	C198.476242,163.972229 200.404266,163.453964 202.650330,164.748398 
	C205.298431,169.229187 201.165482,168.435104 199.215424,169.743332 
	C198.220886,169.999146 197.490250,170.044678 196.398514,170.155701 
	C195.527618,170.552185 195.244522,171.099289 194.562729,171.674774 
	C193.765701,172.130188 193.190887,172.314362 192.301697,172.183563 
	C188.228668,173.266922 189.830414,176.935318 189.374283,179.233063 
	C188.415588,184.062683 186.287521,188.070312 183.023895,191.333282 
	C177.808792,196.547318 173.950424,202.666779 170.094162,208.822159 
	C167.105957,213.591904 165.284866,214.012527 162.156097,209.499207 
	C156.927307,201.956589 150.072220,198.033875 140.882339,197.883484 
	C139.170700,197.855453 137.477280,196.714294 135.392487,196.046387 
	C134.967957,195.605438 134.926392,195.204987 134.868378,194.503067 
	C134.757294,193.959564 134.662659,193.717499 134.734863,193.124481 
	C136.588089,191.541199 138.419495,192.051666 140.188049,192.423111 
	C146.875488,193.827652 153.759354,193.528473 160.460159,194.820312 
	C162.829361,195.277069 165.168594,195.036224 167.042816,193.348907 
	C173.337204,187.682175 178.350479,180.858521 184.395493,174.826126 
	C182.441940,173.182251 181.157547,174.477722 179.888870,174.888229 
	C165.788742,179.450699 151.141586,181.800156 136.847946,185.574081 
	C135.714951,185.873215 134.551712,185.982468 133.177032,185.152649 
	C133.657059,181.676102 137.624374,183.218796 138.991699,180.473679 
z"/>
<path fill="#1D69B3" opacity="1.000000" stroke="none" 
	d="
M192.026276,172.494141 
	C192.532013,171.774750 193.029892,171.513275 193.800079,171.180801 
	C197.124161,178.270065 198.074860,185.654770 196.233444,193.682526 
	C194.214722,195.612198 192.406982,197.174545 190.287415,198.850021 
	C189.534576,195.327362 192.172440,192.153320 191.276581,188.256897 
	C191.896973,183.037155 192.200134,178.010880 192.026276,172.494141 
z"/>
<path fill="#2A699D" opacity="1.000000" stroke="none" 
	d="
M176.959381,156.061035 
	C179.334656,155.002258 181.735031,154.258972 184.335159,153.262024 
	C184.804642,152.749008 185.074356,152.489670 185.571716,152.067230 
	C194.014175,151.301224 201.601807,147.965836 209.899261,146.191101 
	C214.350891,146.243134 218.038376,143.596817 222.639832,144.045822 
	C223.063629,144.065109 223.045914,144.498688 223.093933,144.710602 
	C221.667709,146.205063 220.193451,147.487579 218.439606,148.939453 
	C206.850922,154.014023 194.579620,154.991226 182.338837,157.887802 
	C180.472778,158.248291 179.042389,158.266327 177.353668,157.304504 
	C177.016388,156.797302 177.000427,156.586914 176.959381,156.061035 
z"/>
<path fill="#D7C170" opacity="1.000000" stroke="none" 
	d="
M209.767456,145.956482 
	C209.989319,146.378555 209.855728,147.141434 209.570114,147.203369 
	C201.797195,148.888977 194.345978,152.002411 186.051300,152.195267 
	C189.647293,150.827606 193.495239,149.751099 197.657425,148.501617 
	C201.761490,147.542618 205.551315,146.756622 209.767456,145.956482 
z"/>
<path fill="#023E76" opacity="1.000000" stroke="none" 
	d="
M132.597504,184.908356 
	C143.045486,182.586899 153.197067,180.395279 163.293045,177.971954 
	C169.865845,176.394287 176.535980,175.108795 182.765625,172.283859 
	C183.881195,171.777985 185.567368,171.429108 186.407486,172.730011 
	C187.195251,173.949829 185.790298,174.909256 185.108261,175.671844 
	C179.376465,182.080688 173.595047,188.447525 167.711456,194.717087 
	C165.201965,197.391205 161.935989,196.399902 158.857208,195.996033 
	C151.187134,194.989838 143.515839,193.992859 135.424271,192.988739 
	C134.418564,192.964844 133.901031,192.775635 133.321594,192.130981 
	C132.704987,189.885880 131.625656,188.193619 130.291626,186.262009 
	C130.440323,185.878616 130.670227,185.691895 130.907471,185.199799 
	C131.419296,184.971436 131.848404,184.955643 132.597504,184.908356 
z"/>
<path fill="#1E6097" opacity="1.000000" stroke="none" 
	d="
M133.148178,192.216248 
	C133.683212,192.096313 134.192307,192.302917 134.852448,192.747421 
	C134.986954,193.188400 134.970413,193.391495 134.902893,193.898102 
	C133.987488,193.948837 133.217468,193.597610 133.148178,192.216248 
z"/>
<path fill="#FDFDFD" opacity="1.000000" stroke="none" 
	d="
M363.468872,324.497528 
	C367.462250,327.773865 368.738708,334.611572 366.407501,338.486572 
	C364.672394,341.370697 360.797729,342.214294 358.288086,340.016541 
	C354.801117,336.962921 355.244751,332.858368 356.117981,328.964874 
	C356.905579,325.453186 359.353058,323.724213 363.468872,324.497528 
z"/>
<path fill="#FDFDFD" opacity="1.000000" stroke="none" 
	d="
M130.129150,317.670349 
	C132.834518,320.528870 133.329575,323.494751 131.626907,326.559357 
	C130.094086,329.318268 127.381760,329.969910 124.391983,329.842682 
	C122.414108,329.758514 121.296349,328.972290 121.398506,326.835968 
	C121.461472,325.519440 121.405373,324.197296 121.405197,322.877655 
	C121.404160,315.009552 122.452156,314.329712 130.129150,317.670349 
z"/>
<path fill="#FDFDFD" opacity="1.000000" stroke="none" 
	d="
M229.515686,327.942749 
	C231.221634,323.923798 234.208115,323.266388 237.550735,324.124878 
	C240.753891,324.947510 241.676422,327.704346 241.988586,330.669891 
	C242.696655,337.396912 240.337448,341.602692 235.766708,341.814392 
	C231.049728,342.032837 228.579758,338.255157 228.915863,331.271454 
	C228.963547,330.280731 229.181320,329.298157 229.515686,327.942749 
z"/>
<path fill="#FDFDFD" opacity="1.000000" stroke="none" 
	d="
M153.532227,336.100891 
	C153.370895,339.624664 151.389877,341.291351 148.561371,341.712830 
	C146.466385,342.024994 144.814484,340.809052 143.802124,338.849548 
	C142.659729,336.638336 143.188034,334.617950 144.627380,332.866516 
	C147.394455,329.499481 151.264557,330.782562 153.532227,336.100891 
z"/>
<path fill="#FDFDFD" opacity="1.000000" stroke="none" 
	d="
M213.005066,340.601685 
	C209.471863,341.450378 206.377380,341.362183 204.956604,337.572845 
	C203.418655,333.470947 203.219864,329.302643 206.341278,325.910950 
	C208.707764,323.339539 211.622375,323.506287 214.533875,326.190430 
	C216.106033,331.231262 217.537491,336.102509 213.005066,340.601685 
z"/>
<path fill="#FDFDFD" opacity="1.000000" stroke="none" 
	d="
M189.143982,340.667236 
	C185.207932,342.560150 182.350662,341.714905 181.160583,337.684570 
	C180.151199,334.266174 182.520096,331.796936 187.453873,331.080505 
	C191.312149,333.686371 192.730682,336.630524 189.143982,340.667236 
z"/>
<path fill="#3477C5" opacity="1.000000" stroke="none" 
	d="
M196.333740,193.971588 
	C195.912872,186.625153 195.892868,179.192368 194.053772,171.517242 
	C194.549057,170.845901 195.025742,170.581985 195.769913,170.269623 
	C196.309326,174.788651 197.570404,179.177017 198.897018,183.489761 
	C199.584244,185.723862 200.100601,187.852585 200.003235,190.581024 
	C198.883835,191.969055 197.764435,192.931183 196.333740,193.971588 
z"/>
<path fill="#3477C5" opacity="1.000000" stroke="none" 
	d="
M181.873505,157.322754 
	C190.534409,154.124527 199.523773,153.229233 208.243347,151.120605 
	C211.246262,150.394409 214.068253,148.704773 217.737061,149.060669 
	C213.205933,154.219498 208.251846,159.330200 203.131927,164.732391 
	C197.124771,164.857895 191.954788,167.966202 186.242874,168.454803 
	C184.786880,168.579361 183.346420,168.885773 181.477509,169.126221 
	C180.008514,167.969681 180.544144,166.821350 181.505768,166.158981 
	C185.545135,163.376694 185.296783,160.593338 181.873505,157.322754 
z"/>
<path fill="#3E7CC9" opacity="1.000000" stroke="none" 
	d="
M181.578796,156.992859 
	C187.633148,161.999313 187.630417,161.996307 181.498245,167.563370 
	C181.281052,167.760544 181.229736,168.140457 181.078644,168.789505 
	C173.888306,172.029648 166.225571,173.058746 158.418182,175.068100 
	C159.242859,171.434601 160.980042,167.846359 158.968643,163.547409 
	C164.524384,160.433228 170.504852,158.949310 176.772156,157.278198 
	C178.409882,157.002747 179.787399,156.997803 181.578796,156.992859 
z"/>
<path fill="#1D69B3" opacity="1.000000" stroke="none" 
	d="
M142.778503,179.102966 
	C142.821350,180.018616 142.712036,181.120911 141.133728,180.177490 
	C141.469955,179.656372 141.972061,179.367050 142.778503,179.102966 
z"/>
<path fill="#1D69B3" opacity="1.000000" stroke="none" 
	d="
M149.789673,177.135071 
	C149.832565,178.055603 149.684128,179.102524 148.147064,178.217010 
	C148.479279,177.696259 148.981079,177.397888 149.789673,177.135071 
z"/>
</svg>