<svg version="1.1" id="Layer_1" xmlns="http://www.w3.org/2000/svg" xmlns:xlink="http://www.w3.org/1999/xlink" x="0px" y="0px"
	 width="100%" viewBox="0 0 512 512" enable-background="new 0 0 512 512" xml:space="preserve">
<path fill="#000000" opacity="1.000000" stroke="none" 
	d="
M346.000000,513.000000 
	C232.194321,513.000000 118.888618,512.981506 5.583025,513.084656 
	C1.990455,513.087891 0.890687,512.524048 0.893593,508.585052 
	C1.017360,340.792755 1.016245,173.000351 0.894678,5.208054 
	C0.891984,1.489845 1.796135,0.910172 5.290001,0.912264 
	C173.082336,1.012726 340.874725,1.010792 508.667084,0.922949 
	C512.038391,0.921184 513.117310,1.324942 513.114258,5.165131 
	C512.981812,173.124039 512.985535,341.083069 513.099609,509.042023 
	C513.101990,512.548706 512.294373,513.098877 508.959656,513.091003 
	C454.806671,512.962463 400.653290,513.000000 346.000000,513.000000 
z"/>
<path fill="#365E7D" opacity="1.000000" stroke="none" 
	d="
M71.015045,204.981308 
	C56.357552,199.350433 42.053082,193.884384 27.783926,188.327652 
	C19.627888,185.151520 15.929598,180.349472 16.013218,173.382263 
	C16.094839,166.581665 19.769611,161.969177 27.695505,158.894653 
	C41.506718,153.537140 55.313362,148.166214 69.171562,142.932373 
	C73.735184,141.208832 77.317375,138.937668 76.881447,133.359512 
	C76.721786,131.316422 78.235832,130.830368 79.572906,130.316055 
	C81.878136,129.429367 84.332428,128.910324 86.593521,127.934326 
	C88.873840,126.950043 90.342415,127.005066 92.053062,129.245270 
	C94.857162,132.917435 98.678635,132.128815 102.521484,130.749664 
	C127.434250,121.808861 152.555359,113.478844 177.829880,105.629654 
	C199.602722,98.867943 221.470840,92.412613 243.304993,85.848969 
	C252.311584,83.141472 261.351257,83.156944 270.385895,85.746086 
	C343.717926,106.761505 416.017090,130.827133 486.893921,159.089569 
	C494.286255,162.037308 497.956055,166.858582 497.985840,173.508759 
	C498.015656,180.171021 494.426331,185.053238 487.027588,188.012741 
	C453.945984,201.245377 420.531799,213.580383 386.776886,224.989487 
	C385.072845,225.565460 383.636414,225.997177 381.626221,225.020752 
	C355.271790,212.219437 328.835907,199.585617 302.410400,186.930832 
	C288.594604,180.314621 274.760437,173.736710 260.931396,167.148148 
	C257.140808,165.342194 253.689392,165.792801 251.142212,169.236801 
	C248.905289,172.261322 249.221649,175.504623 251.436142,178.489395 
	C252.566742,180.013245 254.365280,180.641693 256.015869,181.426804 
	C279.020264,192.368622 302.031342,203.296387 325.030762,214.248642 
	C337.486420,220.180008 349.923096,226.151367 362.336487,232.089462 
	C361.919769,233.578812 360.840698,233.659485 359.971375,233.944504 
	C330.078003,243.744965 300.022339,253.021042 269.753479,261.592285 
	C261.246246,264.001312 252.596863,263.996277 244.093536,261.551422 
	C185.848663,244.805054 128.194153,226.244751 71.015045,204.981308 
z"/>
<path fill="#2B4D66" opacity="1.000000" stroke="none" 
	d="
M258.276855,368.038605 
	C248.812943,367.136505 240.101715,363.785278 231.226547,361.104401 
	C195.818100,350.408752 160.992371,338.065277 126.819626,323.880005 
	C121.969276,321.866608 119.969681,318.733917 119.996170,313.560242 
	C120.114761,290.398346 120.132965,267.234924 119.969749,244.073578 
	C119.939384,239.765121 120.699074,238.532318 125.219513,240.073227 
	C160.362076,252.052612 195.904373,262.763214 231.405319,273.625824 
	C248.844315,278.961792 265.485474,279.050812 282.808350,273.640106 
	C309.818817,265.203552 336.975922,257.231903 363.889801,248.476654 
	C369.932037,246.511078 369.933563,246.502472 369.945282,252.630646 
	C369.948792,254.463470 369.920593,256.296356 369.846375,258.588989 
	C366.935303,262.941193 362.252655,263.116119 358.258392,264.423035 
	C329.972107,273.678070 301.521637,282.409515 272.874786,290.490601 
	C270.634003,291.122711 268.396973,291.718231 266.075470,292.041229 
	C260.646271,292.796783 260.085297,293.437622 260.071716,299.136322 
	C260.022980,319.605743 260.070740,340.075287 260.038483,360.544769 
	C260.034576,363.014526 260.376068,365.591827 258.276855,368.038605 
z"/>
<path fill="#365E7D" opacity="1.000000" stroke="none" 
	d="
M258.493347,368.408539 
	C258.051208,344.112915 258.074738,319.808167 257.940430,295.504303 
	C257.923309,292.406616 259.003815,291.108490 261.981140,290.454987 
	C295.468323,283.104645 327.795807,271.806152 360.393066,261.424500 
	C363.236145,260.519012 366.153046,259.845154 369.410736,259.056213 
	C369.835266,282.194519 369.868591,305.340393 369.962128,328.485992 
	C369.970367,330.528900 369.514313,331.930115 367.417236,332.731506 
	C332.120789,346.220428 296.400177,358.420013 259.898987,368.260132 
	C259.580078,368.346100 259.240356,368.354889 258.493347,368.408539 
z"/>
<path fill="#365D7C" opacity="1.000000" stroke="none" 
	d="
M395.493195,249.775848 
	C395.853485,257.534485 395.995483,265.018463 395.933136,272.500732 
	C395.897583,276.766235 397.134247,280.074097 401.550568,281.348938 
	C403.526489,281.919312 404.111084,283.098480 404.023346,285.012787 
	C403.916870,287.336823 403.906311,289.674469 404.027283,291.997253 
	C404.167358,294.687500 403.870178,296.577728 400.594025,297.499176 
	C397.516174,298.364899 396.016266,301.186523 395.989899,304.517395 
	C395.964874,307.677948 395.989441,310.838898 395.956299,313.999329 
	C395.893646,319.977997 393.144135,323.287048 387.471619,324.614319 
	C385.674164,325.034882 384.969116,324.589020 384.961121,322.822571 
	C384.958099,322.157227 384.936096,321.491913 384.936584,320.826599 
	C384.952209,298.535248 384.969513,276.243927 385.045532,253.488708 
	C387.725708,249.731461 390.951141,248.167084 395.493195,249.775848 
z"/>
<path fill="#F5E680" opacity="1.000000" stroke="none" 
	d="
M373.606201,386.279419 
	C382.329956,383.911194 389.780243,388.940704 390.083374,397.413757 
	C390.440125,407.386627 390.162659,417.380890 390.287659,427.364319 
	C390.315552,429.593903 389.518250,430.213165 387.393585,430.164917 
	C381.904297,430.040253 376.410675,430.108887 370.455841,430.019714 
	C368.122070,428.622009 367.975250,426.631927 367.959015,424.618225 
	C367.887024,415.681091 367.730804,406.739899 368.038696,397.808533 
	C368.189453,393.434723 369.240265,389.258331 373.606201,386.279419 
z"/>
<path fill="#E2BF7E" opacity="1.000000" stroke="none" 
	d="
M373.653900,386.012695 
	C371.006592,390.993103 369.809052,396.346924 369.928436,402.156097 
	C370.112305,411.103821 369.978699,420.058075 369.986328,429.474335 
	C365.424316,431.179291 363.964081,429.551453 364.191559,424.788788 
	C364.586456,416.521667 364.286987,408.222015 364.307220,399.936066 
	C364.323212,393.380463 366.768127,388.363251 373.653900,386.012695 
z"/>
<path fill="#2A4C64" opacity="1.000000" stroke="none" 
	d="
M395.857208,249.591949 
	C392.260620,250.248535 389.169922,252.013672 385.465027,252.955719 
	C385.051086,250.382721 385.106049,247.732651 384.912964,245.100784 
	C384.728973,242.592133 385.631531,241.263123 388.091034,240.358673 
	C396.162262,237.390656 396.125031,237.289429 395.857208,249.591949 
z"/>
</svg>