<svg version="1.1" id="Layer_1" xmlns="http://www.w3.org/2000/svg" xmlns:xlink="http://www.w3.org/1999/xlink" x="0px" y="0px"
	 width="100%" viewBox="0 0 64 64" enable-background="new 0 0 64 64" xml:space="preserve">
<path fill="#07A9F0" opacity="1.000000" stroke="none" 
	d="
M42.000000,1.000000 
	C42.444447,1.000000 42.888889,1.000000 43.334473,1.268832 
	C43.645962,1.924256 43.878143,2.513150 44.278152,2.667717 
	C53.222519,6.123905 59.520660,12.228975 63.114681,21.151279 
	C63.300468,21.612492 64.351700,21.725094 65.000000,22.000000 
	C65.000000,25.692909 65.000000,29.385818 64.645622,33.539124 
	C63.582485,33.999565 62.873726,33.999611 62.065186,33.741470 
	C59.031765,31.652931 56.098129,29.822580 53.092400,27.532703 
	C53.013329,23.792704 53.197701,20.494890 52.902805,17.240505 
	C52.788895,15.983425 51.587685,14.824872 50.905106,13.265438 
	C48.989998,12.250291 47.051617,11.591136 45.051331,10.559569 
	C44.004272,8.499477 43.019127,6.811796 42.026493,4.711749 
	C42.012669,3.199588 42.006336,2.099794 42.000000,1.000000 
z"/>
<path fill="#000000" opacity="1.000000" stroke="none" 
	d="
M65.000000,44.000000 
	C65.000000,50.926151 65.000000,57.852299 65.000000,65.000000 
	C58.314232,65.000000 51.626026,65.000000 44.123516,64.677757 
	C43.725941,63.885479 44.142673,63.415447 44.681763,62.961906 
	C44.980305,62.868076 45.033142,62.714542 45.271641,62.288422 
	C46.229095,61.696030 46.877548,61.333019 47.854465,61.035835 
	C50.467762,58.783588 52.752590,56.465515 55.378281,54.086040 
	C56.477024,54.011902 57.693592,54.293262 57.920177,53.939865 
	C59.722488,51.128929 61.284714,48.165031 63.050270,45.328773 
	C63.430489,44.717972 64.336296,44.434338 65.000000,44.000000 
z"/>
<path fill="#000000" opacity="1.000000" stroke="none" 
	d="
M65.000000,21.531086 
	C64.351700,21.725094 63.300468,21.612492 63.114681,21.151279 
	C59.520660,12.228975 53.222519,6.123905 44.278152,2.667717 
	C43.878143,2.513150 43.645962,1.924256 43.667809,1.268832 
	C50.926151,1.000000 57.852299,1.000000 65.000000,1.000000 
	C65.000000,7.685770 65.000000,14.373973 65.000000,21.531086 
z"/>
<path fill="#07A9F0" opacity="1.000000" stroke="none" 
	d="
M41.531597,1.000000 
	C42.006336,2.099794 42.012669,3.199588 41.791954,5.025501 
	C34.672874,7.478040 27.780851,9.204459 20.602699,10.958817 
	C19.933283,10.991151 19.549999,10.995547 19.028339,10.690727 
	C17.871082,9.587657 16.852196,8.793802 15.910940,7.632660 
	C16.733089,6.485600 17.475840,5.704125 18.222528,4.926429 
	C19.480370,3.616356 20.740711,2.308683 22.000000,1.000000 
	C28.354399,1.000000 34.708797,1.000000 41.531597,1.000000 
z"/>
<path fill="#000000" opacity="1.000000" stroke="none" 
	d="
M23.000000,65.000000 
	C15.763025,65.000000 8.526051,65.000000 1.000000,65.000000 
	C1.000000,60.988979 1.000000,56.971153 1.376209,52.476768 
	C2.861662,51.688404 3.970905,51.376591 5.381251,51.126015 
	C6.454962,51.847050 7.227570,52.506851 8.006126,53.514130 
	C10.990891,56.194351 13.969707,58.527103 17.193523,60.922340 
	C17.606867,60.997440 17.775209,61.010059 18.110840,61.314377 
	C18.646544,61.861935 19.014959,62.117790 19.691910,62.540607 
	C21.000296,63.471714 22.000147,64.235855 23.000000,65.000000 
z"/>
<path fill="#40C1FA" opacity="1.000000" stroke="none" 
	d="
M23.468533,65.000000 
	C22.000147,64.235855 21.000296,63.471714 20.096706,62.545029 
	C21.146049,61.043419 22.720503,59.783550 22.903690,58.346348 
	C23.165470,56.292561 22.409081,54.108997 22.482420,51.992313 
	C24.196272,52.002388 25.515215,52.000999 26.915031,52.368294 
	C28.076956,59.095413 33.094105,59.369816 38.418774,59.900833 
	C40.796822,60.877308 44.815243,57.832027 44.559402,62.945412 
	C44.142673,63.415447 43.725941,63.885479 43.654602,64.677757 
	C37.312355,65.000000 30.624710,65.000000 23.468533,65.000000 
z"/>
<path fill="#FF9100" opacity="1.000000" stroke="none" 
	d="
M5.080149,51.064777 
	C3.970905,51.376591 2.861662,51.688404 1.376209,52.000107 
	C1.000000,39.312439 1.000000,26.624876 1.400855,13.483888 
	C2.871270,13.025477 3.940830,13.020494 5.013757,13.021051 
	C5.017125,13.026591 5.026209,13.040543 5.028890,13.290892 
	C5.048523,13.707288 5.065475,13.873334 5.077100,14.505507 
	C5.074565,27.002682 5.077357,39.033730 5.080149,51.064777 
z"/>
<path fill="#000000" opacity="1.000000" stroke="none" 
	d="
M21.531088,1.000000 
	C20.740711,2.308683 19.480370,3.616356 18.222528,4.926429 
	C17.475840,5.704125 16.733089,6.485600 15.540599,7.633321 
	C11.758483,8.319185 8.424335,8.637102 4.934483,8.669343 
	C3.519185,8.589111 2.259592,8.794557 1.000000,9.000000 
	C1.000000,6.374300 1.000000,3.748599 1.000000,1.000000 
	C7.687035,1.000000 14.374605,1.000000 21.531088,1.000000 
z"/>
<path fill="#40C1FA" opacity="1.000000" stroke="none" 
	d="
M65.000000,43.750000 
	C64.336296,44.434338 63.430489,44.717972 63.050270,45.328773 
	C61.284714,48.165031 59.722488,51.128929 57.920177,53.939865 
	C57.693592,54.293262 56.477024,54.011902 55.152809,53.884666 
	C55.113735,49.818836 55.640995,45.892982 56.593552,41.975632 
	C59.289772,41.982620 61.560699,41.981106 63.927902,42.322281 
	C64.349457,42.776646 64.674728,42.888325 65.000000,43.000000 
	C65.000000,43.000000 65.000000,43.500000 65.000000,43.750000 
z"/>
<path fill="#07A9F0" opacity="1.000000" stroke="none" 
	d="
M63.831623,41.979588 
	C61.560699,41.981106 59.289772,41.982620 56.511139,41.987328 
	C56.003429,41.990517 55.841656,42.029804 55.888733,41.694893 
	C55.902245,40.910873 55.868679,40.461765 56.011528,39.715031 
	C58.180279,37.611488 60.172623,35.805573 62.164970,33.999657 
	C62.873726,33.999611 63.582485,33.999565 64.645622,33.999763 
	C65.000000,36.370556 65.000000,38.741116 64.712822,41.269348 
	C64.227631,41.611214 64.029625,41.795403 63.831623,41.979588 
z"/>
<path fill="#F77026" opacity="1.000000" stroke="none" 
	d="
M1.000000,9.400005 
	C2.259592,8.794557 3.519185,8.589111 4.927020,9.073530 
	C5.053639,10.847433 5.032014,11.931473 5.010390,13.015512 
	C3.940830,13.020494 2.871270,13.025477 1.400855,13.015230 
	C1.000000,11.933336 1.000000,10.866673 1.000000,9.400005 
z"/>
<path fill="#000000" opacity="1.000000" stroke="none" 
	d="
M63.927902,42.322281 
	C64.029625,41.795403 64.227631,41.611214 64.712822,41.713512 
	C65.000000,42.000000 65.000000,42.500000 65.000000,42.750000 
	C64.674728,42.888325 64.349457,42.776646 63.927902,42.322281 
z"/>
<path fill="#FFB52D" opacity="1.000000" stroke="none" 
	d="
M5.381251,51.126015 
	C5.077357,39.033730 5.074565,27.002682 5.308901,14.493660 
	C5.546029,14.015687 6.011285,13.990147 6.476269,13.992692 
	C11.055517,13.970762 15.169782,13.946286 19.729916,13.846968 
	C30.411135,13.721893 40.646488,13.671661 50.881840,13.621429 
	C51.587685,14.824872 52.788895,15.983425 52.902805,17.240505 
	C53.197701,20.494890 53.013329,23.792704 52.897453,27.838512 
	C50.049484,27.698166 47.291740,26.879004 44.606926,25.866472 
	C40.605228,24.357302 36.946583,24.258106 33.572117,27.938309 
	C29.109161,29.616926 25.033335,31.250376 20.647678,32.936684 
	C17.826818,33.683933 17.801952,34.764343 19.854218,36.617748 
	C19.882729,41.042046 19.901695,45.014381 19.673935,49.209801 
	C19.211153,50.292591 18.995096,51.152302 18.682518,52.010307 
	C18.585993,52.008602 18.458557,52.153652 17.991436,52.088940 
	C14.349604,52.405037 11.174891,52.785843 8.000178,53.166653 
	C7.227570,52.506851 6.454962,51.847050 5.381251,51.126015 
z"/>
<path fill="#6A61B4" opacity="1.000000" stroke="none" 
	d="
M33.959248,27.893143 
	C36.946583,24.258106 40.605228,24.357302 44.606926,25.866472 
	C47.291740,26.879004 50.049484,27.698166 52.969543,28.298038 
	C56.098129,29.822580 59.031765,31.652931 62.065186,33.741470 
	C60.172623,35.805573 58.180279,37.611488 55.612190,39.718502 
	C52.358570,40.349133 49.680695,40.678665 46.803177,40.715546 
	C43.069736,38.946518 39.535938,37.470139 35.811359,35.673935 
	C35.066803,32.867119 34.513023,30.380131 33.959248,27.893143 
z"/>
<path fill="#EBE1DC" opacity="1.000000" stroke="none" 
	d="
M50.905106,13.265438 
	C40.646488,13.671661 30.411135,13.721893 19.661114,13.484623 
	C19.153200,12.464728 19.159958,11.732335 19.166714,10.999943 
	C19.549999,10.995547 19.933283,10.991151 21.077896,10.976102 
	C29.597227,10.954293 37.355232,10.943136 45.113239,10.931980 
	C47.051617,11.591136 48.989998,12.250291 50.905106,13.265438 
z"/>
<path fill="#CECECE" opacity="1.000000" stroke="none" 
	d="
M45.051331,10.559569 
	C37.355232,10.943136 29.597227,10.954293 21.364025,10.948164 
	C27.780851,9.204459 34.672874,7.478040 41.799438,5.437868 
	C43.019127,6.811796 44.004272,8.499477 45.051331,10.559569 
z"/>
<path fill="#51489A" opacity="1.000000" stroke="none" 
	d="
M56.085842,41.978821 
	C55.640995,45.892982 55.113735,49.818836 54.811951,53.946068 
	C52.752590,56.465515 50.467762,58.783588 47.396408,60.824760 
	C46.060799,61.204506 45.511719,61.861153 44.962639,62.517799 
	C45.033142,62.714542 44.980305,62.868076 44.681767,62.961906 
	C44.815243,57.832027 40.796822,60.877308 38.418503,59.512363 
	C37.314865,54.713661 36.648495,50.359924 36.381966,46.028252 
	C41.413235,47.826153 45.415337,46.104626 49.477814,44.014320 
	C51.424168,43.012848 53.709724,42.670612 55.841656,42.029804 
	C55.841656,42.029804 56.003429,41.990517 56.085842,41.978821 
z"/>
<path fill="#40C1FA" opacity="1.000000" stroke="none" 
	d="
M45.271641,62.288422 
	C45.511719,61.861153 46.060799,61.204506 47.067940,60.758934 
	C46.877548,61.333019 46.229095,61.696030 45.271641,62.288422 
z"/>
<path fill="#FF9100" opacity="1.000000" stroke="none" 
	d="
M19.028339,10.690727 
	C19.159958,11.732335 19.153200,12.464728 19.215244,13.559465 
	C15.169782,13.946286 11.055517,13.970762 6.343732,13.803303 
	C5.544819,13.372396 5.304818,13.182120 5.026209,13.040543 
	C5.026209,13.040543 5.017125,13.026591 5.013757,13.021051 
	C5.032014,11.931473 5.053639,10.847433 5.082726,9.359207 
	C8.424335,8.637102 11.758483,8.319185 15.462971,8.000607 
	C16.852196,8.793802 17.871082,9.587657 19.028339,10.690727 
z"/>
<path fill="#40C1FA" opacity="1.000000" stroke="none" 
	d="
M8.006126,53.514130 
	C11.174891,52.785843 14.349604,52.405037 17.902752,52.488174 
	C17.910112,55.304516 17.539036,57.656914 17.101257,60.218887 
	C17.034555,60.428467 16.948524,60.859852 16.948524,60.859856 
	C13.969707,58.527103 10.990891,56.194351 8.006126,53.514130 
z"/>
<path fill="#51489A" opacity="1.000000" stroke="none" 
	d="
M17.167957,60.009308 
	C17.539036,57.656914 17.910112,55.304516 18.369873,52.552887 
	C18.458557,52.153652 18.585993,52.008602 18.955709,52.103405 
	C20.228218,52.111782 21.131008,52.025352 22.049185,51.946609 
	C22.064569,51.954300 22.087511,51.980854 22.087513,51.980854 
	C22.409081,54.108997 23.165470,56.292561 22.903690,58.346348 
	C22.720503,59.783550 21.146049,61.043419 19.788172,62.378067 
	C19.014959,62.117790 18.646544,61.861935 18.208675,61.172852 
	C17.815468,60.496189 17.491713,60.252750 17.167957,60.009308 
z"/>
<path fill="#463E84" opacity="1.000000" stroke="none" 
	d="
M17.101257,60.218887 
	C17.491713,60.252750 17.815468,60.496189 18.041389,60.881149 
	C17.775209,61.010059 17.606867,60.997440 17.193523,60.922340 
	C16.948524,60.859852 17.034555,60.428467 17.101257,60.218887 
z"/>
<path fill="#453D83" opacity="1.000000" stroke="none" 
	d="
M35.982124,46.006184 
	C36.648495,50.359924 37.314865,54.713661 37.981506,59.455872 
	C33.094105,59.369816 28.076956,59.095413 26.980202,51.967968 
	C26.516516,47.755547 26.068531,44.312134 26.060188,40.887154 
	C29.373026,41.907131 32.246223,42.908680 35.026154,44.138641 
	C35.282631,44.913433 35.632378,45.459808 35.982124,46.006184 
z"/>
<path fill="#FFB52D" opacity="1.000000" stroke="none" 
	d="
M25.620548,40.868721 
	C26.068531,44.312134 26.516516,47.755547 26.899330,51.599285 
	C25.515215,52.000999 24.196272,52.002388 22.482418,51.992313 
	C22.087511,51.980854 22.064569,51.954300 22.030399,51.621643 
	C21.650475,50.524143 21.304722,49.759296 20.985279,48.539467 
	C21.042320,44.751923 21.073050,41.419361 21.450130,38.059631 
	C23.071171,38.977882 24.345860,39.923302 25.620548,40.868721 
z"/>
<path fill="#FFA91E" opacity="1.000000" stroke="none" 
	d="
M5.028890,13.290892 
	C5.304818,13.182120 5.544819,13.372396 5.878749,13.800757 
	C6.011285,13.990147 5.546029,14.015687 5.314228,14.027534 
	C5.065475,13.873334 5.048523,13.707288 5.028890,13.290892 
z"/>
<path fill="#51489A" opacity="1.000000" stroke="none" 
	d="
M36.381966,46.028252 
	C35.632378,45.459808 35.282631,44.913433 35.385563,44.181343 
	C39.230713,43.333046 42.623180,42.670471 46.206802,41.868996 
	C46.639645,41.523041 46.841267,41.282406 47.002815,41.008198 
	C49.680695,40.678665 52.358570,40.349133 55.435783,40.016125 
	C55.868679,40.461765 55.902245,40.910873 55.888733,41.694893 
	C53.709724,42.670612 51.424168,43.012848 49.477814,44.014320 
	C45.415337,46.104626 41.413235,47.826153 36.381966,46.028252 
z"/>
<path fill="#5F55AF" opacity="1.000000" stroke="none" 
	d="
M46.015652,42.007893 
	C42.623180,42.670471 39.230713,43.333046 35.478832,43.952927 
	C32.246223,42.908680 29.373026,41.907131 26.060188,40.887154 
	C24.345860,39.923302 23.071171,38.977882 21.411846,37.737503 
	C20.998856,37.010017 20.970503,36.577492 20.957031,35.735970 
	C20.967112,34.512592 20.962311,33.698208 20.957510,32.883823 
	C25.033335,31.250376 29.109161,29.616926 33.572117,27.938309 
	C34.513023,30.380131 35.066803,32.867119 35.887299,36.021004 
	C39.441227,38.461227 42.728439,40.234562 46.015652,42.007893 
z"/>
<path fill="#453D83" opacity="1.000000" stroke="none" 
	d="
M20.942150,36.144962 
	C20.970503,36.577492 20.998856,37.010017 21.065493,37.764671 
	C21.073050,41.419361 21.042320,44.751923 20.725677,48.541092 
	C20.266729,48.994030 20.093695,48.990372 19.920662,48.986717 
	C19.901695,45.014381 19.882729,41.042046 20.128010,36.604816 
	C20.575558,36.141605 20.758854,36.143284 20.942150,36.144962 
z"/>
<path fill="#6A61B4" opacity="1.000000" stroke="none" 
	d="
M19.673935,49.209801 
	C20.093695,48.990372 20.266729,48.994030 20.699364,48.996071 
	C21.304722,49.759296 21.650475,50.524143 22.015015,51.613956 
	C21.131008,52.025352 20.228218,52.111782 19.052235,52.105110 
	C18.995096,51.152302 19.211153,50.292591 19.673935,49.209801 
z"/>
<path fill="#5F55AF" opacity="1.000000" stroke="none" 
	d="
M20.957031,35.735970 
	C20.758854,36.143284 20.575558,36.141605 20.118465,36.152855 
	C17.801952,34.764343 17.826818,33.683933 20.647678,32.936684 
	C20.962311,33.698208 20.967112,34.512592 20.957031,35.735970 
z"/>
<path fill="#5F55AF" opacity="1.000000" stroke="none" 
	d="
M46.206802,41.868996 
	C42.728439,40.234562 39.441227,38.461227 36.078079,36.340828 
	C39.535938,37.470139 43.069736,38.946518 46.803177,40.715546 
	C46.841267,41.282406 46.639645,41.523041 46.206802,41.868996 
z"/>
</svg>