<svg version="1.1" id="Layer_1" xmlns="http://www.w3.org/2000/svg" xmlns:xlink="http://www.w3.org/1999/xlink" x="0px" y="0px"
	 width="100%" viewBox="0 0 512 512" enable-background="new 0 0 512 512" xml:space="preserve">
<path fill="#074AAA" opacity="1.000000" stroke="none" 
	d="
M512.777466,233.685028 
	C513.000000,248.687561 513.000000,263.375122 513.000000,278.531342 
	C512.127747,286.722961 512.149414,294.513031 511.319946,302.235199 
	C509.602478,318.224426 504.837097,333.455566 499.250977,348.420013 
	C489.513885,374.504272 475.827515,398.394012 458.122192,419.886688 
	C437.740875,444.627777 413.962463,465.467560 386.079529,481.470917 
	C362.965759,494.737000 338.432617,504.332733 312.334656,509.798492 
	C301.564606,512.054077 290.585907,512.254395 279.316223,512.777283 
	C264.312439,513.000000 249.624878,513.000000 234.468658,513.000000 
	C226.622467,512.096069 219.167145,512.155334 211.792160,511.320953 
	C194.167297,509.326996 177.426193,503.936615 161.018799,497.483826 
	C132.901703,486.425751 107.756454,470.496094 85.092140,450.582336 
	C83.717705,449.374725 82.422791,448.079895 81.077835,446.340393 
	C80.624229,445.655670 80.399178,445.255615 80.038338,444.569336 
	C79.780144,444.117767 79.680397,443.939789 79.434814,443.502869 
	C79.191399,443.076477 79.093834,442.908997 78.687080,442.261719 
	C78.263077,441.627808 78.148270,441.473694 77.649223,440.858398 
	C77.139519,440.227478 77.014046,440.057739 76.585556,439.299377 
	C75.887711,437.821533 75.875404,436.903107 76.192947,435.628662 
	C78.397644,432.051697 81.062614,429.317169 83.779381,426.621185 
	C98.646111,411.867981 113.402100,397.003967 128.208679,382.190552 
	C133.603607,376.793121 138.867676,371.255432 145.244537,366.377686 
	C148.829529,365.539001 152.126511,365.776123 155.398193,365.738983 
	C159.126404,365.696655 160.743073,363.912567 160.735992,360.263397 
	C160.730286,357.313019 160.691864,354.353668 161.097260,351.040222 
	C163.460602,347.404785 166.022751,344.373657 168.843506,341.557709 
	C191.842697,318.597565 214.544022,295.331268 237.873627,272.712494 
	C255.929398,255.206848 273.800262,237.522476 291.653809,219.815598 
	C293.687836,217.798264 295.639343,214.960434 299.529907,217.199371 
	C301.065918,220.602875 299.500671,223.375626 298.604462,226.148712 
	C297.480560,229.626404 296.148102,233.016449 296.670959,237.159027 
	C297.429993,243.808762 298.120361,250.092041 300.142181,256.093842 
	C304.035797,267.652191 312.144867,275.798523 322.008881,282.403137 
	C330.848480,288.321869 340.450043,292.935852 349.640381,298.257507 
	C355.443481,301.617828 360.790588,305.479645 365.110657,310.641083 
	C369.851044,316.304718 370.402771,322.555145 367.337402,329.565582 
	C362.985352,338.205109 355.603516,340.731293 347.035492,341.167786 
	C330.813568,341.994202 315.417358,338.910248 300.899139,331.546936 
	C293.878021,327.985962 293.861511,328.023590 292.866455,335.640472 
	C292.801758,336.135651 292.758331,336.625916 292.845642,337.515442 
	C293.571960,343.872925 293.230072,349.862518 293.160828,355.833405 
	C293.114685,359.817200 294.524750,362.271667 298.170868,364.068176 
	C307.431824,368.631256 317.367157,370.485504 327.434631,371.622162 
	C339.170593,372.947205 350.888519,372.763977 362.478912,369.874084 
	C383.786346,364.561432 398.257446,352.408295 403.058380,330.211334 
	C403.844635,326.576050 403.632141,322.940979 403.950500,318.925293 
	C405.042267,306.228027 400.620331,295.692474 392.824646,286.589355 
	C385.491913,278.026825 376.286285,271.687500 366.228485,266.661896 
	C359.373413,263.236572 352.867249,259.207520 346.170227,255.512100 
	C340.479797,252.372131 336.249603,247.811310 332.518677,242.136444 
	C328.120331,233.455734 332.320312,220.739319 347.597687,218.004791 
	C362.575409,215.323914 377.021759,218.165588 390.965881,223.906876 
	C391.273804,224.033630 391.573029,224.181412 391.874237,224.323792 
	C398.438080,227.426865 399.668762,226.648697 399.761902,219.319260 
	C399.819092,214.821777 399.670502,210.322266 399.977234,205.421356 
	C400.590088,203.003708 399.729095,201.069580 399.724976,199.089813 
	C399.717682,195.596283 397.853210,193.637756 394.666840,192.553024 
	C379.802887,187.492996 364.534485,186.511612 348.989960,187.648956 
	C341.318420,188.210251 334.219971,191.233780 326.317383,192.202332 
	C323.081055,190.284485 324.183258,188.150375 325.564301,186.136688 
	C326.789368,184.350372 328.468719,182.939209 329.998291,181.412415 
	C364.851562,146.622360 399.617950,111.745415 434.761841,76.742432 
	C435.891815,75.998100 436.816528,75.895348 438.108826,76.107178 
	C438.629700,76.292709 438.824646,76.392303 439.302094,76.642181 
	C439.749664,76.916336 439.914703,77.040207 440.501404,77.570892 
	C441.057068,78.106697 441.191101,78.235680 441.764557,78.689720 
	C442.368988,79.103676 442.533966,79.192574 443.232574,79.536850 
	C444.342804,80.065552 444.899567,80.378395 445.797852,80.809937 
	C456.145386,90.354233 464.184387,101.360298 471.856354,112.652115 
	C490.905823,140.689743 503.814514,171.346344 510.343994,204.592041 
	C512.198425,214.034210 512.351990,223.734375 512.777466,233.685028 
z"/>
<path fill="#3880E9" opacity="1.000000" stroke="none" 
	d="
M439.745514,76.931610 
	C438.684998,77.293961 437.721405,77.278282 436.392578,77.200691 
	C433.854187,77.507507 432.246765,76.468231 430.588562,75.212929 
	C395.937469,48.980770 357.200958,32.449417 314.154938,26.021912 
	C298.308746,23.655802 282.384888,22.471096 266.424377,23.303129 
	C234.074142,24.989567 202.945557,32.099960 173.277420,45.378490 
	C150.623810,55.517548 129.907562,68.718208 111.147522,84.853043 
	C88.368889,104.444107 69.784210,127.552864 55.120087,153.821838 
	C41.774586,177.728699 32.790405,203.181778 27.647320,230.020615 
	C23.939615,249.369034 22.169367,268.941467 23.331778,288.588318 
	C26.439711,341.117981 43.308891,388.743622 75.337860,430.753723 
	C76.372116,432.110229 77.305626,433.440674 77.168015,435.631805 
	C77.272675,437.001984 77.409241,437.978851 77.432541,439.309784 
	C74.098129,440.453339 72.437019,438.036652 70.604065,436.230804 
	C59.317413,425.111084 49.662380,412.670410 40.888771,399.501221 
	C22.506561,371.909576 10.022265,341.857147 3.621971,309.362488 
	C1.701295,299.611084 1.553027,289.590149 1.222750,279.316528 
	C1.000000,264.645782 1.000000,250.291550 1.000000,235.468658 
	C1.934301,227.281586 1.795794,219.486908 2.659252,211.762878 
	C4.445825,195.781128 9.162471,180.544586 14.748791,165.580139 
	C24.486166,139.495987 38.172405,115.606133 55.877777,94.113380 
	C76.259132,69.372231 100.037445,48.532181 127.920570,32.529049 
	C151.034439,19.263174 175.570023,9.679323 201.664352,4.195297 
	C212.438110,1.931065 223.413727,1.740034 234.683792,1.222709 
	C249.354233,1.000000 263.708466,1.000000 278.531342,1.000000 
	C286.708771,1.934821 294.489746,1.834369 302.209412,2.644072 
	C318.201508,4.321457 333.365936,9.217457 348.334351,14.713288 
	C374.778839,24.422731 398.701111,38.621265 420.548859,56.325058 
	C426.349945,61.025841 432.022583,65.918129 437.084351,71.450813 
	C438.427155,72.918526 439.938507,74.304161 439.745514,76.931610 
z"/>
<path fill="#FFFFFF" opacity="1.000000" stroke="none" 
	d="
M439.748535,77.392868 
	C423.248108,59.577259 404.030060,45.509254 383.159302,33.514309 
	C361.253448,20.924477 337.909119,12.172052 313.305878,6.664043 
	C302.140411,4.164384 290.899597,2.124085 279.211273,1.370225 
	C355.594788,1.000000 432.189667,1.034246 508.784210,0.895152 
	C512.471680,0.888456 513.097107,1.755743 513.091553,5.276560 
	C512.971130,81.205124 513.000000,157.133926 513.000000,233.531342 
	C510.794678,230.528503 511.679565,226.452530 511.171112,222.734268 
	C507.849426,198.443008 501.228149,175.213669 491.406921,152.731659 
	C483.023010,133.539871 471.989502,116.038620 459.567291,99.352478 
	C455.071289,93.313240 449.673279,87.945488 444.393341,82.113754 
	C443.615723,81.570351 442.945007,81.529587 442.666199,80.831245 
	C442.840637,80.575829 442.615356,80.223190 442.418579,80.152168 
	C442.137634,80.787369 441.873230,80.893349 441.661987,80.052917 
	C441.846741,79.628372 441.776062,79.476913 441.479370,79.216927 
	C440.984833,79.620049 440.677246,79.669693 440.606934,78.967819 
	C440.889130,78.748802 440.697571,78.320503 440.484802,78.221680 
	C440.033600,78.636978 439.741760,78.700684 439.631866,77.981232 
	C439.877380,77.734665 439.848541,77.476089 439.748535,77.392868 
z"/>
<path fill="#FFFFFF" opacity="1.000000" stroke="none" 
	d="
M279.468658,513.000000 
	C282.628143,510.635437 286.904846,511.733826 290.784332,511.223389 
	C315.645081,507.952484 339.415314,501.212280 362.266541,490.951965 
	C385.012512,480.738983 405.691223,467.447510 424.515106,451.059143 
	C447.261292,431.255920 466.140656,408.442078 480.985748,382.175720 
	C492.740601,361.377106 501.176361,339.288116 506.732086,316.174774 
	C509.625519,304.137268 511.907867,291.854034 512.608276,279.178345 
	C513.000000,355.594940 512.965698,432.189972 513.104919,508.784668 
	C513.111633,512.473389 512.242493,513.096985 508.722961,513.091431 
	C432.461212,512.971313 356.199249,513.000000 279.468658,513.000000 
z"/>
<path fill="#FFFFFF" opacity="1.000000" stroke="none" 
	d="
M1.000000,279.468658 
	C3.246569,282.852875 2.262438,287.273804 2.748886,291.347137 
	C5.023622,310.394989 9.826294,328.800659 16.382137,346.689575 
	C23.986513,367.439606 34.375942,386.836578 47.247192,404.883911 
	C56.066055,417.249237 65.735321,428.840881 77.052872,439.465546 
	C77.319267,439.663818 77.480858,439.856628 77.606056,439.868744 
	C78.055145,439.406586 78.378990,439.436676 78.406487,440.067535 
	C78.110176,440.254120 78.310867,440.692535 78.529694,440.793732 
	C79.134308,440.343903 79.484695,440.387207 79.449188,441.096161 
	C79.167801,441.388947 79.240875,441.543365 79.545090,441.808472 
	C79.995193,441.252075 80.302238,441.204071 80.383835,441.996368 
	C80.068520,442.204834 80.208374,442.603180 80.383316,442.721313 
	C81.535423,442.178619 81.373123,443.177216 81.791206,443.836121 
	C94.099876,456.641113 108.229378,466.695251 122.945641,475.840668 
	C141.220322,487.197479 160.765564,495.917175 181.427979,502.125580 
	C195.021912,506.210144 208.791641,509.220093 222.859879,511.148285 
	C226.461716,511.641907 230.083252,511.579865 233.821930,512.611755 
	C157.738220,513.000000 81.476395,512.965454 5.214871,513.105042 
	C1.524840,513.111755 0.903148,512.240784 0.908682,508.722504 
	C1.028636,432.460907 1.000000,356.199097 1.000000,279.468658 
z"/>
<path fill="#FFFFFF" opacity="1.000000" stroke="none" 
	d="
M234.531342,1.000000 
	C231.144577,3.234280 226.732315,2.242824 222.650986,2.756881 
	C203.630615,5.152568 185.181244,9.791714 167.297241,16.405046 
	C146.717239,24.015341 127.394371,34.228607 109.453255,46.970955 
	C92.153778,59.257580 76.828972,73.627884 62.789406,89.532585 
	C48.164772,106.100090 36.106995,124.315788 26.471067,144.099228 
	C16.161396,165.265930 8.639904,187.376221 4.777389,210.734573 
	C3.465015,218.671051 2.207299,226.559692 1.370914,234.789749 
	C1.000000,158.405045 1.034289,81.810020 0.895047,5.215313 
	C0.888341,1.526464 1.757603,0.903042 5.277071,0.908585 
	C81.538803,1.028677 157.800766,1.000000 234.531342,1.000000 
z"/>
<path fill="#2364CE" opacity="1.000000" stroke="none" 
	d="
M77.454887,435.942688 
	C67.455605,425.782715 60.222439,413.809998 53.400425,401.631775 
	C37.687439,373.582001 27.572504,343.541168 23.304611,311.687836 
	C20.941479,294.050598 20.430464,276.332794 21.744680,258.455780 
	C23.805134,230.427872 30.201838,203.584976 40.952778,177.733185 
	C52.444370,150.100403 68.661301,125.541771 88.878571,103.436378 
	C109.466942,80.925240 133.416077,62.942219 160.358688,48.985588 
	C184.774826,36.337708 210.736694,28.115513 237.977859,23.959726 
	C254.647751,21.416643 271.412689,20.237103 288.209991,21.108759 
	C321.260742,22.823853 353.083344,30.024170 383.188049,44.086685 
	C401.951019,52.851269 419.815857,63.086628 435.859436,76.835312 
	C435.503662,79.624062 433.438965,80.946281 431.823364,82.563766 
	C397.635620,116.791542 363.416962,150.988510 329.233887,185.220963 
	C327.629303,186.827835 325.489716,188.103134 325.121429,191.041504 
	C325.079407,191.615128 325.039917,191.820328 324.907654,192.329254 
	C324.625519,193.026016 324.396393,193.394745 323.922760,194.007172 
	C315.223969,199.986633 307.636841,206.612961 302.000977,215.723083 
	C301.381348,216.282135 300.978058,216.533798 299.854584,216.916168 
	C296.231812,217.097000 294.933380,219.540207 293.223206,221.236450 
	C250.068985,264.039551 206.950027,306.878204 163.561096,349.896179 
	C160.711334,349.038422 160.858765,346.697357 160.843735,344.575470 
	C160.707840,325.410828 160.644424,306.245056 160.868546,287.081299 
	C160.932755,281.590881 162.623230,279.956360 168.184998,279.864807 
	C179.999634,279.670410 191.818039,279.966522 203.541122,277.876343 
	C220.964157,274.769989 237.057022,268.685944 249.803818,256.033722 
	C261.285736,244.636963 267.604889,230.445114 269.672058,214.420288 
	C270.159119,210.644485 271.226227,206.883804 270.484192,202.585022 
	C272.265350,179.813629 265.551697,160.322708 249.642197,144.620010 
	C238.501648,133.624283 224.038269,128.705536 208.823807,126.270302 
	C190.163589,123.283508 171.383469,123.693260 152.605103,124.987045 
	C146.948334,125.376793 141.286850,125.197311 135.627426,125.223175 
	C124.194321,125.275429 124.194229,125.255463 122.643944,136.718124 
	C122.265434,140.650085 122.297279,144.147156 122.297020,147.642242 
	C122.291924,216.220383 122.289909,284.798523 122.297577,353.376648 
	C122.298943,365.597168 122.365616,365.570740 134.501541,365.757446 
	C137.900436,365.809692 141.544739,364.862579 144.836548,367.754791 
	C125.308273,388.054230 105.545456,407.928741 85.782784,427.803345 
	C83.112679,430.488617 80.443352,433.174652 77.454887,435.942688 
z"/>
<path fill="#C7D7E8" opacity="1.000000" stroke="none" 
	d="
M272.692902,201.518356 
	C272.963928,243.474472 246.629654,273.583099 204.828506,280.030792 
	C192.578842,281.920258 180.313492,282.322174 168.001678,281.706116 
	C163.972000,281.504486 162.958008,282.816742 162.994003,286.711212 
	C163.186325,307.520569 163.113281,328.332367 163.214661,349.612579 
	C163.217117,354.372131 163.153839,358.662872 163.051315,362.952667 
	C162.971359,366.298462 161.549728,368.155304 157.874298,368.010315 
	C153.916550,367.854187 149.946472,368.010620 145.526398,368.105164 
	C138.913620,368.110504 132.743271,367.768921 126.602982,368.060486 
	C121.894363,368.283997 120.266129,366.200256 120.384422,361.918396 
	C120.425797,360.420746 120.383751,358.920868 120.383736,357.421997 
	C120.383339,286.142181 120.384567,214.862381 120.377708,143.582581 
	C120.377502,141.419006 120.293297,139.255417 120.345970,136.718002 
	C122.729866,133.946075 125.434006,132.929764 128.838440,132.750778 
	C150.285126,131.623260 171.752182,131.334320 193.201935,131.887009 
	C211.937408,132.369751 230.034058,136.251785 245.432831,147.655533 
	C259.543457,158.105301 269.383606,171.582397 271.054443,189.789841 
	C271.402893,193.587082 272.637909,197.261719 272.692902,201.518356 
z"/>
<path fill="#FEFEFF" opacity="1.000000" stroke="none" 
	d="
M366.051392,329.402527 
	C368.755554,320.891205 366.886841,314.072266 360.377319,308.449554 
	C352.379791,301.541626 342.954041,296.973602 333.749664,292.060760 
	C326.107117,287.981476 318.770233,283.467316 312.279297,277.720062 
	C300.662933,267.434692 295.169739,254.375763 295.180054,238.501434 
	C297.110443,228.629898 300.438354,219.952591 307.388184,212.903320 
	C317.790039,202.352600 330.704132,196.572723 345.022858,195.215851 
	C360.226379,193.775146 375.636627,194.025513 390.609100,198.083359 
	C394.651428,199.178909 399.334686,199.626541 401.591888,204.713715 
	C401.914215,211.358246 402.044861,217.665741 402.055878,223.973450 
	C402.065094,229.253632 400.010162,230.736526 395.327728,228.333817 
	C387.586670,224.361588 379.474915,221.685226 370.899750,220.503235 
	C363.354340,219.463181 355.811798,218.412170 348.143890,219.971985 
	C336.710083,222.297836 331.232361,230.304794 334.056335,241.557983 
	C337.626373,251.636078 343.623535,259.279938 352.155426,265.100861 
	C360.975037,271.118073 370.915527,275.206482 379.619385,281.386749 
	C386.556976,286.312866 393.221069,291.505981 398.154572,298.635590 
	C402.113464,304.356842 404.786377,310.492950 405.646729,317.749817 
	C407.046143,343.386292 392.503387,364.065063 367.696442,370.834503 
	C343.584351,377.414246 319.785065,375.649536 296.621002,365.972015 
	C292.407898,364.211853 290.480591,361.784729 290.885101,356.953766 
	C291.383759,350.998627 291.030365,344.972198 291.117584,338.516357 
	C293.910095,334.144226 297.052063,335.942566 299.955109,337.600220 
	C313.292877,345.216095 327.777863,348.317047 342.958679,348.773865 
	C344.455200,348.818878 345.946106,348.666931 347.439209,348.468018 
	C358.435333,347.003387 364.935455,341.100037 366.051392,329.402527 
z"/>
<path fill="#C8D8E8" opacity="1.000000" stroke="none" 
	d="
M401.953125,204.604645 
	C390.932617,198.861221 378.851715,197.633606 366.712830,197.053070 
	C353.369415,196.414917 340.132812,196.769470 327.473297,202.164490 
	C312.109131,208.712128 301.889282,219.709351 297.005463,235.682541 
	C296.775391,236.434982 296.255310,237.098724 295.549072,237.934540 
	C294.379181,230.931213 296.863037,224.424240 299.099792,217.480560 
	C299.169189,217.103394 299.098145,217.056412 299.072266,217.090240 
	C299.437134,216.615036 299.480804,215.966690 299.986511,215.217117 
	C305.636078,205.629211 312.824463,198.036011 322.768890,192.782440 
	C323.226532,191.828354 323.781921,191.512497 324.793579,191.228622 
	C325.080109,191.042801 324.958008,191.239731 325.038452,191.324829 
	C346.523041,182.521362 368.400513,183.535187 390.321838,188.736679 
	C402.109314,191.533615 402.306824,192.278015 401.953125,204.604645 
z"/>
<path fill="#C8D8E8" opacity="1.000000" stroke="none" 
	d="
M365.831970,329.236053 
	C368.416534,336.665344 365.671417,343.480682 358.873810,347.115173 
	C348.674011,352.568756 337.942749,351.352203 327.226044,349.547577 
	C316.672729,347.770447 306.598511,344.528717 297.458984,338.767944 
	C295.731873,337.679291 293.924744,336.849213 291.518616,337.976990 
	C291.121948,335.897125 290.999237,333.738190 290.996307,331.579102 
	C290.987793,325.340210 292.705353,324.229645 297.950806,327.380280 
	C304.965637,331.593689 312.535400,334.370422 320.395508,336.370514 
	C331.072357,339.087433 341.863647,340.199585 352.829498,338.081604 
	C358.350830,337.015228 362.627563,334.253479 365.831970,329.236053 
z"/>
<path fill="#C7D7E8" opacity="1.000000" stroke="none" 
	d="
M405.935883,317.597107 
	C404.510315,317.674469 404.239960,316.562469 403.905701,315.410034 
	C399.909149,301.631012 390.843353,291.843170 379.360901,283.812469 
	C368.998322,276.564972 356.843170,272.246582 347.121155,264.025391 
	C340.358582,258.306824 334.238373,252.051300 333.888794,242.192291 
	C341.339600,251.897736 352.379272,256.474670 362.582214,262.140717 
	C373.178558,268.025238 383.766998,273.807129 392.332092,282.652466 
	C401.675690,292.301758 406.386719,303.692749 405.935883,317.597107 
z"/>
<path fill="#3880E9" opacity="1.000000" stroke="none" 
	d="
M442.808716,80.847168 
	C443.224915,80.874802 443.609222,81.173767 444.046692,81.714455 
	C443.658813,81.676956 443.217834,81.397720 442.808716,80.847168 
z"/>
<path fill="#3880E9" opacity="1.000000" stroke="none" 
	d="
M81.897507,443.827332 
	C81.570107,443.825806 81.183136,443.551514 80.677208,443.058350 
	C81.205612,442.682709 81.582405,443.010162 81.897507,443.827332 
z"/>
<path fill="#3880E9" opacity="1.000000" stroke="none" 
	d="
M441.841553,79.903809 
	C441.917389,79.779839 442.250092,79.887779 442.235931,79.984467 
	C442.221771,80.081146 441.972778,80.230408 441.972778,80.230408 
	C441.972778,80.230408 441.765686,80.027779 441.841553,79.903809 
z"/>
<path fill="#3880E9" opacity="1.000000" stroke="none" 
	d="
M440.814117,78.891060 
	C440.889130,78.748802 441.279388,78.880653 441.266388,78.994530 
	C441.253387,79.108406 440.968689,79.257248 440.968689,79.257248 
	C440.968689,79.257248 440.739105,79.033318 440.814117,78.891060 
z"/>
<path fill="#3880E9" opacity="1.000000" stroke="none" 
	d="
M439.803223,77.885590 
	C439.877380,77.734665 440.287598,77.883011 440.279846,78.002930 
	C440.272064,78.122856 439.970001,78.269943 439.970001,78.269943 
	C439.970001,78.269943 439.729095,78.036507 439.803223,77.885590 
z"/>
<path fill="#3880E9" opacity="1.000000" stroke="none" 
	d="
M78.185066,440.106506 
	C78.110176,440.254120 77.710228,440.114594 77.720741,439.997742 
	C77.731255,439.880859 78.024216,439.728241 78.024216,439.728241 
	C78.024216,439.728241 78.259956,439.958923 78.185066,440.106506 
z"/>
<path fill="#3880E9" opacity="1.000000" stroke="none" 
	d="
M79.170547,441.096863 
	C79.094719,441.234528 78.719009,441.113800 78.733765,441.004364 
	C78.748512,440.894928 79.021812,440.740936 79.021812,440.740936 
	C79.021812,440.740936 79.246368,440.959198 79.170547,441.096863 
z"/>
<path fill="#3880E9" opacity="1.000000" stroke="none" 
	d="
M80.145279,442.083557 
	C80.068520,442.204834 79.752838,442.102722 79.764526,442.010956 
	C79.776215,441.919189 80.016640,441.763428 80.016640,441.763428 
	C80.016640,441.763428 80.222038,441.962311 80.145279,442.083557 
z"/>
<path fill="#FBFCFE" opacity="1.000000" stroke="none" 
	d="
M272.896332,201.486328 
	C270.525482,193.466858 269.493439,184.683014 265.863159,176.555771 
	C256.815033,156.299362 241.087265,144.115509 220.075348,138.234970 
	C209.947281,135.400482 199.607803,134.059219 189.079376,133.985855 
	C168.963531,133.845688 148.855118,134.053619 128.761841,135.044632 
	C126.292725,135.166412 123.849602,135.814896 120.919067,136.281738 
	C119.457817,124.222572 120.232979,123.203957 132.469177,123.155037 
	C155.445465,123.063164 178.436661,120.835083 201.394440,123.075012 
	C225.480270,125.425003 246.901459,133.311050 260.883789,154.624771 
	C268.212433,165.796097 272.328339,178.160797 272.027985,191.746933 
	C271.958832,194.874527 273.593811,197.851761 272.896332,201.486328 
z"/>
<path fill="#074AAA" opacity="1.000000" stroke="none" 
	d="
M324.746399,191.106033 
	C324.601257,191.465591 324.122406,191.888367 323.327393,192.445801 
	C323.478394,192.110077 323.945526,191.639664 324.746399,191.106033 
z"/>
<path fill="#074AAA" opacity="1.000000" stroke="none" 
	d="
M299.991821,215.229767 
	C300.026611,215.626541 299.817108,216.222488 299.326996,216.971252 
	C299.280090,216.559021 299.513824,215.993988 299.991821,215.229767 
z"/>
<path fill="#2465CE" opacity="1.000000" stroke="none" 
	d="
M163.270432,245.960739 
	C163.068832,218.293671 163.131241,191.007095 162.998413,163.721481 
	C162.981110,160.165543 163.745773,158.799011 167.611328,158.753540 
	C177.581070,158.636276 187.589828,157.437759 197.482834,159.266388 
	C221.282059,163.665451 232.979523,178.321289 232.411087,202.669647 
	C232.360626,204.830811 232.179550,206.988922 232.113388,209.620056 
	C232.209091,227.283112 225.003525,237.161621 208.246185,244.032883 
	C195.032791,249.450958 180.877945,248.490143 166.923630,248.060715 
	C165.506592,248.017105 164.374924,247.413895 163.270432,245.960739 
z"/>
<path fill="#FCFDFE" opacity="1.000000" stroke="none" 
	d="
M163.051849,246.067719 
	C174.020508,246.061523 184.989594,246.753632 195.886124,244.949890 
	C215.540451,241.696365 228.707764,231.487335 232.084198,210.475876 
	C234.764847,226.429977 227.120636,246.375732 207.978119,253.270584 
	C194.296661,258.198456 180.317352,257.881683 166.199844,257.039581 
	C163.852051,256.899536 162.986588,255.728729 163.022339,253.538315 
	C163.060303,251.211258 163.034576,248.883163 163.051849,246.067719 
z"/>
</svg>