<svg version="1.1" id="Layer_1" xmlns="http://www.w3.org/2000/svg" xmlns:xlink="http://www.w3.org/1999/xlink" x="0px" y="0px"
	 width="100%" viewBox="0 0 500 500" enable-background="new 0 0 500 500" xml:space="preserve">
<path fill="#FFFFFF" opacity="1.000000" stroke="none" 
	d="
M319.000000,501.000000 
	C212.666687,501.000000 106.833382,501.000000 1.000057,501.000000 
	C1.000038,334.333405 1.000038,167.666794 1.000019,1.000146 
	C167.666565,1.000098 334.333130,1.000098 500.999756,1.000049 
	C500.999847,167.666519 500.999847,334.333038 500.999939,500.999786 
	C440.500000,501.000000 380.000000,501.000000 319.000000,501.000000 
M107.654533,191.945847 
	C108.188530,191.687912 108.722527,191.429977 110.048119,191.148544 
	C115.358543,189.787247 120.668976,188.425949 126.697609,187.073715 
	C127.166084,186.969894 127.634567,186.866074 128.772842,187.150772 
	C130.579681,193.290634 132.619919,199.373550 134.135742,205.584442 
	C136.142868,213.808350 146.883270,223.447495 156.663010,221.032837 
	C157.117783,220.960541 157.572540,220.888245 158.605637,220.937866 
	C159.106964,220.682083 159.608292,220.426285 160.121185,220.114075 
	C160.121185,220.114075 160.065842,220.098175 160.785828,220.064682 
	C163.175247,218.990677 165.564682,217.916672 168.053421,217.795197 
	C168.053421,244.162674 168.053421,270.530151 168.053421,296.808594 
	C173.563385,296.808594 178.346680,296.808594 183.671875,296.808594 
	C183.671875,280.409027 183.671875,264.201935 183.671875,248.598541 
	C192.452545,249.084274 200.734207,250.160553 208.969727,249.880371 
	C232.305191,249.086472 246.987701,233.693893 247.207596,210.585983 
	C249.033844,209.617386 250.860107,208.648788 252.971985,207.528702 
	C247.165878,194.977478 241.583832,182.910660 236.000671,170.414627 
	C236.000671,170.414627 235.994507,169.985474 235.910019,169.218887 
	C233.248688,161.129303 230.587357,153.039719 228.515701,144.481155 
	C234.075256,139.051544 239.667023,133.654068 245.153931,128.152008 
	C245.846481,127.457573 245.987961,126.213615 246.384781,125.224258 
	C245.247360,124.877808 244.109955,124.531349 242.207611,124.209488 
	C235.480759,125.912186 228.753922,127.614876 221.260376,129.294266 
	C213.843643,131.240341 206.426926,133.186417 198.207535,135.074249 
	C190.143173,137.093079 182.078812,139.111893 173.220291,141.052017 
	C166.154861,142.815048 159.089417,144.578094 151.254974,146.304321 
	C148.832138,146.886978 146.426712,147.558289 143.983627,148.037735 
	C129.095596,150.959457 114.849434,154.491760 104.402534,167.303848 
	C96.681313,176.773148 87.294258,184.884125 78.159752,194.056625 
	C77.296379,195.446671 76.433006,196.836716 75.569633,198.226761 
	C75.997513,198.637619 76.425392,199.048477 76.853264,199.459335 
	C86.564857,196.984833 96.276443,194.510330 106.534988,192.053772 
	C106.706085,191.990524 106.877182,191.927261 107.654533,191.945847 
M262.981873,211.216873 
	C263.765137,221.019775 269.673096,227.547043 277.657349,231.897476 
	C285.042694,235.921631 293.040649,238.869278 300.894409,241.973236 
	C309.711273,245.457809 318.725037,248.496857 325.777863,255.235428 
	C336.656677,265.629517 333.470001,283.846283 319.279938,288.553345 
	C312.383881,290.840942 304.555084,291.460388 297.235229,291.095581 
	C280.459656,290.259644 273.041443,283.461334 269.281219,267.278381 
	C265.587952,267.278381 261.866821,267.278381 258.045624,267.278381 
	C258.829163,277.184113 263.089172,285.036621 271.175690,290.000458 
	C290.209412,301.684113 310.280975,302.597046 330.136780,292.652405 
	C349.100067,283.154816 353.007568,254.565308 334.138367,241.402756 
	C326.758026,236.254486 318.072906,232.928802 309.854614,229.042542 
	C300.879822,224.798584 291.250732,221.701645 282.827148,216.588531 
	C272.188110,210.130676 272.633240,196.298798 282.791687,189.107117 
	C299.682281,177.149414 323.466431,183.941544 330.830200,202.733643 
	C334.451630,202.733643 338.028229,202.733643 341.776672,202.733643 
	C339.652893,192.103287 333.265198,185.252701 324.036987,180.988937 
	C311.592560,175.239120 298.665924,174.576782 285.609131,178.668900 
	C269.998871,183.561325 262.643158,193.972931 262.981873,211.216873 
M179.747162,347.471436 
	C179.510895,342.580444 180.675903,337.332611 176.195206,333.522400 
	C179.885071,328.911743 181.163773,320.896301 178.276520,316.781311 
	C173.819626,310.429230 167.099594,313.919250 161.081711,312.887451 
	C161.081711,326.506287 161.081711,339.557129 161.081711,352.637451 
	C163.195892,352.637451 165.052536,352.637451 167.299042,352.637451 
	C167.299042,347.184326 167.299042,342.107300 167.299042,337.124756 
	C171.649033,336.239441 173.285187,338.032349 173.227921,341.867157 
	C173.174179,345.466766 173.216400,349.067841 173.216400,352.836609 
	C175.929733,352.836609 177.717270,352.836609 179.751495,352.836609 
	C179.751495,351.313873 179.751495,349.862640 179.747162,347.471436 
M226.274384,327.566406 
	C226.850403,314.662903 224.442032,311.558899 207.383896,313.462219 
	C207.383896,326.603699 207.383896,339.749542 207.383896,353.002258 
	C210.749771,353.002258 213.738342,353.065674 216.723343,352.989258 
	C223.256607,352.821991 225.993729,350.147430 226.208664,343.488556 
	C226.369247,338.512726 226.262314,333.528229 226.274384,327.566406 
M359.268341,313.004517 
	C356.509705,313.004517 353.751038,313.004517 351.070740,313.004517 
	C351.070740,326.666809 351.070740,339.609283 351.070740,352.997406 
	C354.400696,352.997406 357.527527,353.072968 360.649475,352.981445 
	C366.911987,352.797943 369.845703,350.008911 369.995758,343.775391 
	C370.160095,336.948822 370.115021,330.114777 370.036438,323.285461 
	C369.952637,316.000946 367.581573,313.600494 359.268341,313.004517 
M334.021912,340.246979 
	C334.021912,331.296204 334.021912,322.345428 334.021912,313.389954 
	C331.680786,313.389954 329.820984,313.389954 327.920837,313.389954 
	C327.920837,324.262390 327.758240,334.754822 327.990417,345.238525 
	C328.103943,350.364868 331.195038,353.069153 336.260284,353.437683 
	C341.454773,353.815582 345.706024,351.516968 345.894623,346.914612 
	C346.353790,335.708252 346.044159,324.470337 346.044159,313.210754 
	C344.172058,313.210754 342.550903,313.210754 340.526215,313.210754 
	C340.526215,315.053436 340.526337,316.698364 340.526184,318.343292 
	C340.525482,326.338135 340.710297,334.340607 340.384033,342.322144 
	C340.309235,344.152252 338.635376,347.298340 337.421051,347.438110 
	C333.960907,347.836456 333.962860,344.761932 334.021088,342.172546 
	C334.028564,341.839600 334.021973,341.506348 334.021912,340.246979 
M136.069107,351.420166 
	C137.848099,352.066956 139.627090,352.713745 141.438232,353.372253 
	C142.073807,350.237091 142.492371,348.172424 142.909576,346.114441 
	C145.581390,346.114441 147.843979,346.114441 150.312347,346.114441 
	C150.744965,348.388367 151.139114,350.460083 151.548767,352.613281 
	C153.729782,352.613281 155.722656,352.613281 157.853683,352.613281 
	C155.682220,339.162781 153.578598,326.132507 151.489304,313.191071 
	C148.109634,313.191071 145.320175,313.191071 142.264526,313.191071 
	C140.213272,325.744385 138.186584,338.147430 136.069107,351.420166 
M200.110260,328.155701 
	C199.311569,323.146851 198.512863,318.138031 197.753220,313.374146 
	C194.271408,313.374146 191.370590,313.374146 188.432373,313.374146 
	C186.311981,326.643890 184.250107,339.547424 182.139374,352.756775 
	C184.219772,352.756775 185.967758,352.756775 187.723938,352.756775 
	C188.269562,350.415039 188.781616,348.217377 189.270676,346.118408 
	C191.891129,346.118408 194.155899,346.118408 196.500732,346.118408 
	C197.015472,348.517639 197.485382,350.707886 197.929504,352.777954 
	C200.162750,352.777954 201.931122,352.777954 204.123550,352.777954 
	C202.796402,344.660492 201.518005,336.841217 200.110260,328.155701 
M248.009705,348.132416 
	C248.203033,338.699738 248.834106,329.247681 248.417496,319.842010 
	C248.185715,314.609100 243.966553,312.263916 238.279480,312.685059 
	C233.116272,313.067474 230.117325,315.960510 229.954376,321.374451 
	C229.734329,328.685089 229.880188,336.006409 229.842560,343.322998 
	C229.820312,347.650635 231.072220,351.257721 235.500946,352.860504 
	C240.063065,354.511536 244.486511,353.000122 248.009705,348.132416 
M255.829865,324.870941 
	C258.568604,330.134491 257.981049,335.259766 255.655807,340.560669 
	C253.968643,344.406891 252.915161,348.531067 251.539017,352.651459 
	C257.246490,353.148987 257.250092,353.150177 258.757111,348.622864 
	C259.903931,345.177704 261.040039,341.728943 262.432098,337.522736 
	C263.791138,341.610657 265.273651,344.831848 265.889832,348.211029 
	C266.835480,353.397308 269.752930,353.718079 274.030273,352.486053 
	C272.243805,347.188324 270.740540,342.093689 268.792023,337.175476 
	C267.487396,333.882538 267.505432,330.953308 268.796417,327.662140 
	C270.623291,323.004761 271.977936,318.162201 273.611877,313.161804 
	C271.337677,313.161804 269.710419,313.161804 267.959320,313.161804 
	C266.470825,317.401062 265.020782,321.530792 263.570740,325.660522 
	C261.617401,322.997803 260.477966,320.303558 259.911194,317.493835 
	C258.933990,312.649109 256.128174,312.178986 251.971527,313.577148 
	C253.208694,317.235291 254.374496,320.682434 255.829865,324.870941 
M285.731323,320.180023 
	C284.899933,325.179718 286.500916,329.339722 290.058014,332.849518 
	C291.952148,334.718506 294.281342,336.368317 295.525116,338.610291 
	C296.697174,340.722900 296.867004,343.470062 297.058380,345.970184 
	C297.089935,346.382507 294.185059,347.615784 293.965759,347.354553 
	C292.519714,345.631775 291.437256,343.603821 289.969666,341.247192 
	C289.059448,341.247192 287.306702,341.247192 285.580353,341.247192 
	C284.999512,348.866669 287.354309,352.569885 293.031189,353.286041 
	C301.699036,354.379547 306.900299,346.923187 302.911774,338.447205 
	C301.345764,335.119324 298.038666,332.653778 295.889435,329.543335 
	C294.264526,327.191650 292.968903,324.522095 292.074493,321.813171 
	C291.819092,321.039581 293.569458,318.662659 294.235138,318.726959 
	C295.520294,318.851227 296.856293,320.033569 297.837311,321.087952 
	C298.371216,321.661804 298.219696,322.873383 298.368011,323.742859 
	C300.343140,323.742859 301.958496,323.742859 303.551788,323.742859 
	C304.140839,317.411499 302.092316,313.892151 297.372955,312.892181 
	C291.413300,311.629395 287.956390,313.590271 285.731323,320.180023 
M131.981537,315.500916 
	C126.841713,314.343445 121.701897,313.185944 116.128777,311.930908 
	C116.128777,326.557434 116.128777,339.620361 116.128777,352.768860 
	C118.158218,352.768860 119.904564,352.768860 122.098221,352.768860 
	C122.098221,347.785095 122.098221,343.024536 122.098221,338.000336 
	C127.152893,338.156067 132.624969,338.013275 133.457184,332.622894 
	C134.280334,327.291260 132.910461,321.621033 131.981537,315.500916 
M386.822449,318.113892 
	C385.770996,321.952881 384.719513,325.791870 383.383148,330.670990 
	C381.580048,324.216003 380.038391,318.696960 378.506500,313.213013 
	C376.216461,313.213013 374.264069,313.213013 372.172028,313.213013 
	C375.141266,326.447571 381.814331,338.673645 379.768494,352.662292 
	C382.235443,352.662292 384.097809,352.662292 385.960144,352.662292 
	C385.483368,352.432434 385.006592,352.202606 384.529785,351.972748 
	C387.459442,339.055695 390.389099,326.138611 393.339447,313.130341 
	C391.818604,313.130341 390.184296,313.130341 388.269012,313.130341 
	C387.836975,314.530518 387.408356,315.919647 386.822449,318.113892 
M312.134277,343.453247 
	C312.134277,346.558624 312.134277,349.664001 312.134277,352.663574 
	C314.636078,352.663574 316.522949,352.663574 318.892212,352.663574 
	C318.892212,341.247864 318.892212,330.197052 318.892212,319.104126 
	C321.148621,318.928436 322.918304,318.790649 324.790527,318.644897 
	C324.790527,316.651703 324.790527,314.949371 324.790527,313.144714 
	C318.372467,313.144714 312.277069,313.144714 305.972107,313.144714 
	C305.972107,315.064087 305.972107,316.809570 305.972107,318.601807 
	C308.132782,318.824799 310.025726,319.020142 312.134308,319.237762 
	C312.134308,327.215698 312.134308,334.841705 312.134277,343.453247 
z"/>
<path fill="#060606" opacity="1.000000" stroke="none" 
	d="
M262.956665,210.758942 
	C262.643158,193.972931 269.998871,183.561325 285.609131,178.668900 
	C298.665924,174.576782 311.592560,175.239120 324.036987,180.988937 
	C333.265198,185.252701 339.652893,192.103287 341.776672,202.733643 
	C338.028229,202.733643 334.451630,202.733643 330.830200,202.733643 
	C323.466431,183.941544 299.682281,177.149414 282.791687,189.107117 
	C272.633240,196.298798 272.188110,210.130676 282.827148,216.588531 
	C291.250732,221.701645 300.879822,224.798584 309.854614,229.042542 
	C318.072906,232.928802 326.758026,236.254486 334.138367,241.402756 
	C353.007568,254.565308 349.100067,283.154816 330.136780,292.652405 
	C310.280975,302.597046 290.209412,301.684113 271.175690,290.000458 
	C263.089172,285.036621 258.829163,277.184113 258.045624,267.278381 
	C261.866821,267.278381 265.587952,267.278381 269.281219,267.278381 
	C273.041443,283.461334 280.459656,290.259644 297.235229,291.095581 
	C304.555084,291.460388 312.383881,290.840942 319.279938,288.553345 
	C333.470001,283.846283 336.656677,265.629517 325.777863,255.235428 
	C318.725037,248.496857 309.711273,245.457809 300.894409,241.973236 
	C293.040649,238.869278 285.042694,235.921631 277.657349,231.897476 
	C269.673096,227.547043 263.765137,221.019775 262.956665,210.758942 
z"/>
<path fill="#060606" opacity="1.000000" stroke="none" 
	d="
M246.667465,211.062378 
	C246.987701,233.693893 232.305191,249.086472 208.969727,249.880371 
	C200.734207,250.160553 192.452545,249.084274 183.671875,248.598541 
	C183.671875,264.201935 183.671875,280.409027 183.671875,296.808594 
	C178.346680,296.808594 173.563385,296.808594 168.053421,296.808594 
	C168.053421,270.530151 168.053421,244.162674 168.140289,217.016663 
	C172.511810,212.887665 176.796448,209.537216 181.381531,206.074203 
	C182.276276,208.857147 182.870575,211.752655 183.514740,215.136154 
	C183.569504,222.618118 183.806152,229.622833 183.482529,236.601578 
	C183.318253,240.144394 184.895889,241.584869 187.888184,241.708786 
	C194.510406,241.983032 201.262527,242.815292 207.746887,241.899353 
	C218.792816,240.339066 226.021118,233.463745 228.910065,222.639877 
	C233.427948,205.712906 225.337006,192.212723 207.284607,185.723145 
	C207.354584,185.557449 207.279984,185.205551 207.583908,185.075836 
	C210.621307,183.408020 211.445419,181.241104 210.467926,178.315887 
	C221.782959,178.855927 231.304138,182.591965 239.015427,190.947540 
	C240.239639,196.286911 241.156555,201.349533 242.697006,206.214706 
	C243.282623,208.064224 245.301712,209.459869 246.667465,211.062378 
z"/>
<path fill="#5D8ED4" opacity="1.000000" stroke="none" 
	d="
M174.014450,141.130707 
	C182.078812,139.111893 190.143173,137.093079 198.548370,135.435913 
	C194.487686,138.578796 189.997498,141.230728 185.706635,144.173355 
	C180.102463,148.016647 174.656067,152.090027 169.101135,156.092758 
	C169.060501,156.121109 168.962280,156.117279 168.755905,156.189972 
	C168.293518,156.426926 168.115753,156.652802 167.639038,156.962128 
	C165.713852,157.129623 163.779053,157.940857 162.685196,157.305130 
	C158.084366,154.631210 157.131119,157.775711 155.668533,160.999054 
	C150.614471,163.734985 145.452408,165.903412 141.391113,169.363785 
	C137.659241,172.543457 135.112869,177.114532 131.778595,181.327850 
	C125.689499,183.080276 119.866028,184.577454 113.647316,186.061798 
	C111.187683,186.394745 109.123283,186.740524 107.075493,186.734680 
	C109.635376,183.183655 112.017532,179.836685 114.771339,176.830139 
	C117.102989,174.284485 119.524483,171.492981 122.493294,169.914291 
	C137.548660,161.908524 152.835037,154.338196 167.933258,146.411041 
	C170.246689,145.196381 172.001358,142.917419 174.014450,141.130707 
z"/>
<path fill="#FDFDFD" opacity="1.000000" stroke="none" 
	d="
M238.956512,190.592117 
	C231.304138,182.591965 221.782959,178.855927 210.199112,178.070724 
	C203.790192,168.472107 203.791504,168.473450 211.593842,160.861130 
	C214.073380,158.442017 216.630707,156.094757 218.993393,153.566010 
	C221.192429,151.212387 223.179810,148.661026 225.585449,146.299744 
	C228.239700,152.529175 230.495026,158.685333 232.942596,164.764099 
	C233.687531,166.614212 234.962372,168.250977 235.994507,169.985474 
	C235.994507,169.985474 236.000671,170.414627 235.951477,171.070496 
	C236.920349,178.014954 237.938431,184.303543 238.956512,190.592117 
z"/>
<path fill="#6C98DD" opacity="1.000000" stroke="none" 
	d="
M173.617371,141.091370 
	C172.001358,142.917419 170.246689,145.196381 167.933258,146.411041 
	C152.835037,154.338196 137.548660,161.908524 122.493294,169.914291 
	C119.524483,171.492981 117.102989,174.284485 114.771339,176.830139 
	C112.017532,179.836685 109.635376,183.183655 106.811066,186.992264 
	C99.679634,189.367722 92.829231,191.133957 85.987549,192.538193 
	C88.256584,189.690063 90.418823,187.105347 92.798012,184.738724 
	C97.466469,180.094879 101.610313,174.482605 107.123947,171.217651 
	C120.206367,163.470764 133.976868,156.888794 147.425995,149.754456 
	C149.093094,148.870117 150.497742,147.490997 152.023987,146.341141 
	C159.089417,144.578094 166.154861,142.815048 173.617371,141.091370 
z"/>
<path fill="#125892" opacity="1.000000" stroke="none" 
	d="
M179.749329,347.941406 
	C179.751495,349.862640 179.751495,351.313873 179.751495,352.836609 
	C177.717270,352.836609 175.929733,352.836609 173.216400,352.836609 
	C173.216400,349.067841 173.174179,345.466766 173.227921,341.867157 
	C173.285187,338.032349 171.649033,336.239441 167.299042,337.124756 
	C167.299042,342.107300 167.299042,347.184326 167.299042,352.637451 
	C165.052536,352.637451 163.195892,352.637451 161.081711,352.637451 
	C161.081711,339.557129 161.081711,326.506287 161.081711,312.887451 
	C167.099594,313.919250 173.819626,310.429230 178.276520,316.781311 
	C181.163773,320.896301 179.885071,328.911743 176.191360,333.523376 
	C180.675903,337.332611 179.510895,342.580444 179.749329,347.941406 
M169.359634,318.858093 
	C168.591095,319.601746 167.222366,320.298096 167.159378,321.097351 
	C166.905289,324.321991 167.054047,327.578400 167.054047,330.823059 
	C167.471909,331.135895 167.889771,331.448730 168.307632,331.761566 
	C169.889786,330.557678 172.772644,329.381470 172.798965,328.144470 
	C172.865677,325.010498 175.505249,320.687775 169.359634,318.858093 
z"/>
<path fill="#0E5590" opacity="1.000000" stroke="none" 
	d="
M226.274445,328.057007 
	C226.262314,333.528229 226.369247,338.512726 226.208664,343.488556 
	C225.993729,350.147430 223.256607,352.821991 216.723343,352.989258 
	C213.738342,353.065674 210.749771,353.002258 207.383896,353.002258 
	C207.383896,339.749542 207.383896,326.603699 207.383896,313.462219 
	C224.442032,311.558899 226.850403,314.662903 226.274445,328.057007 
M213.205627,323.713318 
	C213.205627,331.449097 213.205627,339.184906 213.205627,346.949707 
	C216.790054,347.254486 219.945480,347.965393 220.006577,343.527771 
	C220.102707,336.545105 220.242462,329.548309 219.849762,322.586517 
	C219.774979,321.261139 217.498856,319.375763 215.921036,318.963562 
	C212.756470,318.136841 213.253754,320.849670 213.205627,323.713318 
z"/>
<path fill="#0E5590" opacity="1.000000" stroke="none" 
	d="
M359.723175,313.005676 
	C367.581573,313.600494 369.952637,316.000946 370.036438,323.285461 
	C370.115021,330.114777 370.160095,336.948822 369.995758,343.775391 
	C369.845703,350.008911 366.911987,352.797943 360.649475,352.981445 
	C357.527527,353.072968 354.400696,352.997406 351.070740,352.997406 
	C351.070740,339.609283 351.070740,326.666809 351.070740,313.004517 
	C353.751038,313.004517 356.509705,313.004517 359.723175,313.005676 
M363.896301,343.070465 
	C363.898651,336.949127 363.932434,330.827606 363.894135,324.706512 
	C363.858917,319.076263 363.329132,318.646088 357.386841,319.136932 
	C357.386841,328.431549 357.386841,337.729706 357.386841,347.027863 
	C357.785950,347.395660 358.185089,347.763458 358.584198,348.131256 
	C360.340363,346.747070 362.096497,345.362915 363.896301,343.070465 
z"/>
<path fill="#0E5590" opacity="1.000000" stroke="none" 
	d="
M334.021912,340.710083 
	C334.021973,341.506348 334.028564,341.839600 334.021088,342.172546 
	C333.962860,344.761932 333.960907,347.836456 337.421051,347.438110 
	C338.635376,347.298340 340.309235,344.152252 340.384033,342.322144 
	C340.710297,334.340607 340.525482,326.338135 340.526184,318.343292 
	C340.526337,316.698364 340.526215,315.053436 340.526215,313.210754 
	C342.550903,313.210754 344.172058,313.210754 346.044159,313.210754 
	C346.044159,324.470337 346.353790,335.708252 345.894623,346.914612 
	C345.706024,351.516968 341.454773,353.815582 336.260284,353.437683 
	C331.195038,353.069153 328.103943,350.364868 327.990417,345.238525 
	C327.758240,334.754822 327.920837,324.262390 327.920837,313.389954 
	C329.820984,313.389954 331.680786,313.389954 334.021912,313.389954 
	C334.021912,322.345428 334.021912,331.296204 334.021912,340.710083 
z"/>
<path fill="#145993" opacity="1.000000" stroke="none" 
	d="
M136.114502,350.985321 
	C138.186584,338.147430 140.213272,325.744385 142.264526,313.191071 
	C145.320175,313.191071 148.109634,313.191071 151.489304,313.191071 
	C153.578598,326.132507 155.682220,339.162781 157.853683,352.613281 
	C155.722656,352.613281 153.729782,352.613281 151.548767,352.613281 
	C151.139114,350.460083 150.744965,348.388367 150.312347,346.114441 
	C147.843979,346.114441 145.581390,346.114441 142.909576,346.114441 
	C142.492371,348.172424 142.073807,350.237091 141.438232,353.372253 
	C139.627090,352.713745 137.848099,352.066956 136.114502,350.985321 
M148.418213,340.100281 
	C148.088379,334.586914 147.758560,329.073547 147.428726,323.560181 
	C146.983459,323.589508 146.538193,323.618805 146.092926,323.648102 
	C145.405258,328.036285 144.816315,332.442993 143.996460,336.806305 
	C143.414871,339.901489 144.840149,340.588989 148.418213,340.100281 
z"/>
<path fill="#145993" opacity="1.000000" stroke="none" 
	d="
M200.174927,328.588806 
	C201.518005,336.841217 202.796402,344.660492 204.123550,352.777954 
	C201.931122,352.777954 200.162750,352.777954 197.929504,352.777954 
	C197.485382,350.707886 197.015472,348.517639 196.500732,346.118408 
	C194.155899,346.118408 191.891129,346.118408 189.270676,346.118408 
	C188.781616,348.217377 188.269562,350.415039 187.723938,352.756775 
	C185.967758,352.756775 184.219772,352.756775 182.139374,352.756775 
	C184.250107,339.547424 186.311981,326.643890 188.432373,313.374146 
	C191.370590,313.374146 194.271408,313.374146 197.753220,313.374146 
	C198.512863,318.138031 199.311569,323.146851 200.174927,328.588806 
M194.042206,328.527161 
	C193.676758,326.670044 193.311295,324.812927 192.945847,322.955811 
	C192.727020,322.993561 192.508194,323.031311 192.289352,323.069061 
	C191.513489,328.710022 190.737625,334.350983 189.915359,340.329315 
	C192.260132,340.173767 193.859268,340.067688 195.748245,339.942383 
	C195.169266,336.165527 194.647415,332.761292 194.042206,328.527161 
z"/>
<path fill="#0E5590" opacity="1.000000" stroke="none" 
	d="
M247.871796,348.510040 
	C244.486511,353.000122 240.063065,354.511536 235.500946,352.860504 
	C231.072220,351.257721 229.820312,347.650635 229.842560,343.322998 
	C229.880188,336.006409 229.734329,328.685089 229.954376,321.374451 
	C230.117325,315.960510 233.116272,313.067474 238.279480,312.685059 
	C243.966553,312.263916 248.185715,314.609100 248.417496,319.842010 
	C248.834106,329.247681 248.203033,338.699738 247.871796,348.510040 
M242.622482,322.258484 
	C241.452103,320.945801 240.281723,319.633087 239.111359,318.320404 
	C238.076904,319.933990 236.236130,321.505707 236.149826,323.168457 
	C235.806046,329.793396 235.798355,336.458191 236.160965,343.081146 
	C236.248917,344.687897 238.224045,346.191315 239.331406,347.742249 
	C240.435593,346.178345 242.403778,344.661896 242.492798,343.042206 
	C242.856796,336.419373 242.646988,329.764984 242.622482,322.258484 
z"/>
<path fill="#145993" opacity="1.000000" stroke="none" 
	d="
M255.685089,324.500244 
	C254.374496,320.682434 253.208694,317.235291 251.971527,313.577148 
	C256.128174,312.178986 258.933990,312.649109 259.911194,317.493835 
	C260.477966,320.303558 261.617401,322.997803 263.570740,325.660522 
	C265.020782,321.530792 266.470825,317.401062 267.959320,313.161804 
	C269.710419,313.161804 271.337677,313.161804 273.611877,313.161804 
	C271.977936,318.162201 270.623291,323.004761 268.796417,327.662140 
	C267.505432,330.953308 267.487396,333.882538 268.792023,337.175476 
	C270.740540,342.093689 272.243805,347.188324 274.030273,352.486053 
	C269.752930,353.718079 266.835480,353.397308 265.889832,348.211029 
	C265.273651,344.831848 263.791138,341.610657 262.432098,337.522736 
	C261.040039,341.728943 259.903931,345.177704 258.757111,348.622864 
	C257.250092,353.150177 257.246490,353.148987 251.539017,352.651459 
	C252.915161,348.531067 253.968643,344.406891 255.655807,340.560669 
	C257.981049,335.259766 258.568604,330.134491 255.685089,324.500244 
z"/>
<path fill="#125892" opacity="1.000000" stroke="none" 
	d="
M285.799866,319.798920 
	C287.956390,313.590271 291.413300,311.629395 297.372955,312.892181 
	C302.092316,313.892151 304.140839,317.411499 303.551788,323.742859 
	C301.958496,323.742859 300.343140,323.742859 298.368011,323.742859 
	C298.219696,322.873383 298.371216,321.661804 297.837311,321.087952 
	C296.856293,320.033569 295.520294,318.851227 294.235138,318.726959 
	C293.569458,318.662659 291.819092,321.039581 292.074493,321.813171 
	C292.968903,324.522095 294.264526,327.191650 295.889435,329.543335 
	C298.038666,332.653778 301.345764,335.119324 302.911774,338.447205 
	C306.900299,346.923187 301.699036,354.379547 293.031189,353.286041 
	C287.354309,352.569885 284.999512,348.866669 285.580353,341.247192 
	C287.306702,341.247192 289.059448,341.247192 289.969666,341.247192 
	C291.437256,343.603821 292.519714,345.631775 293.965759,347.354553 
	C294.185059,347.615784 297.089935,346.382507 297.058380,345.970184 
	C296.867004,343.470062 296.697174,340.722900 295.525116,338.610291 
	C294.281342,336.368317 291.952148,334.718506 290.058014,332.849518 
	C286.500916,329.339722 284.899933,325.179718 285.799866,319.798920 
z"/>
<path fill="#0E5590" opacity="1.000000" stroke="none" 
	d="
M132.242050,315.800110 
	C132.910461,321.621033 134.280334,327.291260 133.457184,332.622894 
	C132.624969,338.013275 127.152893,338.156067 122.098221,338.000336 
	C122.098221,343.024536 122.098221,347.785095 122.098221,352.768860 
	C119.904564,352.768860 118.158218,352.768860 116.128777,352.768860 
	C116.128777,339.620361 116.128777,326.557434 116.128777,311.930908 
	C121.701897,313.185944 126.841713,314.343445 132.242050,315.800110 
M127.588531,330.896423 
	C127.747299,328.616089 128.040253,326.335571 128.037552,324.055420 
	C128.031464,318.921112 127.602623,318.619995 122.348190,319.406769 
	C122.348190,323.593689 122.348190,327.780579 122.348190,332.116425 
	C123.474075,332.116425 124.298393,332.186432 125.104088,332.094086 
	C125.740471,332.021118 126.353973,331.748596 127.588531,330.896423 
z"/>
<path fill="#1764A0" opacity="1.000000" stroke="none" 
	d="
M181.081100,206.186768 
	C176.796448,209.537216 172.511810,212.887665 168.090637,216.540375 
	C165.564682,217.916672 163.175247,218.990677 160.402100,219.703888 
	C155.535263,208.707001 148.602341,199.181900 136.853302,200.689819 
	C136.142624,198.924149 135.574509,197.465591 135.350708,196.034546 
	C136.792282,196.378189 137.889557,196.694321 139.265289,197.297165 
	C149.461731,197.968994 157.393768,201.725372 162.830002,210.451981 
	C165.039352,213.998566 167.044891,213.304596 169.929657,209.242859 
	C174.325531,203.053513 179.012695,197.071884 183.519180,190.960037 
	C187.230377,185.926758 190.977692,180.870895 189.074966,173.644043 
	C190.090805,172.883102 191.053955,172.463470 192.013672,172.501007 
	C191.669876,177.977341 191.329514,182.996490 190.747589,188.179932 
	C190.339249,188.891083 190.172485,189.437973 190.005051,190.322113 
	C189.999146,191.109131 189.993912,191.558914 189.720184,192.203445 
	C188.259094,194.135620 186.973831,195.817688 185.895386,197.623260 
	C184.216782,200.433655 182.678711,203.327988 181.081100,206.186768 
z"/>
<path fill="#78A1E3" opacity="1.000000" stroke="none" 
	d="
M151.639481,146.322723 
	C150.497742,147.490997 149.093094,148.870117 147.425995,149.754456 
	C133.976868,156.888794 120.206367,163.470764 107.123947,171.217651 
	C101.610313,174.482605 97.466469,180.094879 92.798012,184.738724 
	C90.418823,187.105347 88.256584,189.690063 85.579880,192.585388 
	C82.992104,193.196457 80.820740,193.398361 78.649368,193.600250 
	C87.294258,184.884125 96.681313,176.773148 104.402534,167.303848 
	C114.849434,154.491760 129.095596,150.959457 143.983627,148.037735 
	C146.426712,147.558289 148.832138,146.886978 151.639481,146.322723 
z"/>
<path fill="#125892" opacity="1.000000" stroke="none" 
	d="
M386.901093,317.711334 
	C387.408356,315.919647 387.836975,314.530518 388.269012,313.130341 
	C390.184296,313.130341 391.818604,313.130341 393.339447,313.130341 
	C390.389099,326.138611 387.459442,339.055695 384.529785,351.972748 
	C385.006592,352.202606 385.483368,352.432434 385.960144,352.662292 
	C384.097809,352.662292 382.235443,352.662292 379.768494,352.662292 
	C381.814331,338.673645 375.141266,326.447571 372.172028,313.213013 
	C374.264069,313.213013 376.216461,313.213013 378.506500,313.213013 
	C380.038391,318.696960 381.580048,324.216003 383.383148,330.670990 
	C384.719513,325.791870 385.770996,321.952881 386.901093,317.711334 
z"/>
<path fill="#3E7CC9" opacity="1.000000" stroke="none" 
	d="
M222.027069,129.317566 
	C228.753922,127.614876 235.480759,125.912186 242.568314,124.533119 
	C236.616913,131.122635 230.304825,137.388504 223.761871,143.784485 
	C223.360565,143.961136 223.190140,144.007675 222.599915,144.043549 
	C218.217789,144.668121 214.255463,145.303360 209.859589,145.951019 
	C205.719238,146.701889 202.012421,147.440338 198.038208,147.999786 
	C199.414642,146.100388 200.845428,144.085754 202.741180,142.713348 
	C209.080154,138.124252 215.585464,133.764908 222.027069,129.317566 
z"/>
<path fill="#1D6097" opacity="1.000000" stroke="none" 
	d="
M312.134277,342.960480 
	C312.134308,334.841705 312.134308,327.215698 312.134308,319.237762 
	C310.025726,319.020142 308.132782,318.824799 305.972107,318.601807 
	C305.972107,316.809570 305.972107,315.064087 305.972107,313.144714 
	C312.277069,313.144714 318.372467,313.144714 324.790527,313.144714 
	C324.790527,314.949371 324.790527,316.651703 324.790527,318.644897 
	C322.918304,318.790649 321.148621,318.928436 318.892212,319.104126 
	C318.892212,330.197052 318.892212,341.247864 318.892212,352.663574 
	C316.522949,352.663574 314.636078,352.663574 312.134277,352.663574 
	C312.134277,349.664001 312.134277,346.558624 312.134277,342.960480 
z"/>
<path fill="#5085CC" opacity="1.000000" stroke="none" 
	d="
M221.643723,129.305908 
	C215.585464,133.764908 209.080154,138.124252 202.741180,142.713348 
	C200.845428,144.085754 199.414642,146.100388 197.725922,148.231415 
	C193.693466,149.736984 189.705917,150.831924 185.418365,152.143448 
	C179.792831,153.594833 174.467316,154.829605 169.141785,156.064392 
	C174.656067,152.090027 180.102463,148.016647 185.706635,144.173355 
	C189.997498,141.230728 194.487686,138.578796 198.949707,135.465027 
	C206.426926,133.186417 213.843643,131.240341 221.643723,129.305908 
z"/>
<path fill="#3E7CC9" opacity="1.000000" stroke="none" 
	d="
M135.006393,196.007034 
	C135.574509,197.465591 136.142624,198.924149 136.987747,201.018433 
	C138.846893,202.946518 140.293411,205.082733 142.038162,205.363068 
	C146.222366,206.035431 148.314270,208.729691 150.278488,211.886703 
	C152.162598,214.914932 154.074890,217.925613 155.974808,220.944016 
	C146.883270,223.447495 136.142868,213.808350 134.135742,205.584442 
	C132.619919,199.373550 130.579681,193.290634 128.637177,186.723206 
	C129.540115,186.235596 130.578751,186.175552 131.708008,186.409714 
	C132.157257,187.162140 132.515869,187.620361 132.890976,188.439697 
	C133.233826,189.895111 133.560181,190.989426 133.919800,192.426178 
	C134.304153,193.848083 134.655273,194.927567 135.006393,196.007034 
z"/>
<path fill="#D7C170" opacity="1.000000" stroke="none" 
	d="
M239.015442,190.947540 
	C237.938431,184.303543 236.920349,178.014954 235.952026,171.285095 
	C241.583832,182.910660 247.165878,194.977478 252.971985,207.528702 
	C250.860107,208.648788 249.033844,209.617386 246.937531,210.824188 
	C245.301712,209.459869 243.282623,208.064224 242.697006,206.214706 
	C241.156555,201.349533 240.239639,196.286911 239.015442,190.947540 
z"/>
<path fill="#0C5696" opacity="1.000000" stroke="none" 
	d="
M131.617371,186.115509 
	C130.578751,186.175552 129.540115,186.235596 128.302277,186.528946 
	C127.634567,186.866074 127.166084,186.969894 126.401093,186.699982 
	C127.961395,185.531784 129.849762,184.802795 131.667343,183.926926 
	C134.168030,182.721878 136.615189,181.405777 139.397079,180.089661 
	C140.128647,180.009796 140.548401,179.977539 141.133636,180.176819 
	C141.893707,179.981552 142.488281,179.554764 143.441833,179.083405 
	C145.193008,178.690674 146.585190,178.342529 148.146835,178.216705 
	C148.909683,178.016174 149.503067,177.593292 150.477844,177.126892 
	C153.243515,176.411392 155.627808,175.739426 158.421875,175.067841 
	C166.239853,173.093460 173.648041,171.118683 181.477539,169.126282 
	C183.346436,168.885803 184.804871,168.717239 186.239700,168.430466 
	C191.819229,167.315292 197.391281,166.162613 203.103546,165.312271 
	C202.483063,166.704681 201.725159,167.808716 200.709259,168.648651 
	C195.632416,169.579468 190.813568,170.774353 185.591354,171.982681 
	C180.787918,173.328217 176.387848,174.660294 171.585754,176.004272 
	C167.048111,177.017593 162.899826,177.969833 158.779465,179.030502 
	C149.717957,181.363113 140.670547,183.750488 131.617371,186.115509 
z"/>
<path fill="#3477C5" opacity="1.000000" stroke="none" 
	d="
M78.404556,193.828445 
	C80.820740,193.398361 82.992104,193.196457 85.571152,192.947388 
	C92.829231,191.133957 99.679634,189.367722 106.794464,187.343903 
	C109.123283,186.740524 111.187683,186.394745 113.562973,186.407013 
	C110.470642,188.238846 107.067406,189.712662 102.708626,191.600266 
	C104.464371,191.833466 105.226196,191.934647 105.988029,192.035828 
	C96.276443,194.510330 86.564857,196.984833 76.853264,199.459335 
	C76.425392,199.048477 75.997513,198.637619 75.569633,198.226761 
	C76.433006,196.836716 77.296379,195.446671 78.404556,193.828445 
z"/>
<path fill="#1D69B3" opacity="1.000000" stroke="none" 
	d="
M156.318909,220.988434 
	C154.074890,217.925613 152.162598,214.914932 150.278488,211.886703 
	C148.314270,208.729691 146.222366,206.035431 142.038162,205.363068 
	C140.293411,205.082733 138.846893,202.946518 137.130310,201.325562 
	C148.602341,199.181900 155.535263,208.707001 160.042099,219.720627 
	C160.065842,220.098175 160.121185,220.114075 159.825119,220.087372 
	C159.028473,220.312424 158.527893,220.564194 158.027313,220.815948 
	C157.572540,220.888245 157.117783,220.960541 156.318909,220.988434 
z"/>
<path fill="#69A7F7" opacity="1.000000" stroke="none" 
	d="
M223.992706,143.654388 
	C230.304825,137.388504 236.616913,131.122635 242.950775,124.520821 
	C244.109955,124.531349 245.247360,124.877808 246.384766,125.224258 
	C245.987961,126.213615 245.846481,127.457573 245.153931,128.152008 
	C239.667023,133.654068 234.075256,139.051544 227.971619,144.621628 
	C226.282593,144.392853 225.137650,144.023621 223.992706,143.654388 
z"/>
<path fill="#1D69B3" opacity="1.000000" stroke="none" 
	d="
M106.261505,192.044800 
	C105.226196,191.934647 104.464371,191.833466 102.708626,191.600266 
	C107.067406,189.712662 110.470642,188.238846 113.958221,186.419830 
	C119.866028,184.577454 125.689499,183.080276 132.175034,181.316147 
	C134.919830,180.745224 137.002548,180.441238 139.085281,180.137253 
	C136.615189,181.405777 134.168030,182.721878 131.667343,183.926926 
	C129.849762,184.802795 127.961395,185.531784 126.041992,186.695465 
	C120.668976,188.425949 115.358543,189.787247 109.343529,191.110168 
	C108.108719,191.335861 107.578499,191.599930 107.048279,191.864014 
	C106.877182,191.927261 106.706085,191.990524 106.261505,192.044800 
z"/>
<path fill="#D7C170" opacity="1.000000" stroke="none" 
	d="
M223.761856,143.784485 
	C225.137650,144.023621 226.282593,144.392853 227.676773,144.856110 
	C230.587357,153.039719 233.248688,161.129303 235.952271,169.602173 
	C234.962372,168.250977 233.687531,166.614212 232.942596,164.764099 
	C230.495026,158.685333 228.239700,152.529175 225.284622,146.197723 
	C224.144196,145.642853 223.629639,145.293015 223.059753,144.724182 
	C223.004410,144.505188 223.019730,144.054214 223.019730,144.054214 
	C223.190140,144.007675 223.360565,143.961136 223.761856,143.784485 
z"/>
<path fill="#3E7CC9" opacity="1.000000" stroke="none" 
	d="
M158.316467,220.876907 
	C158.527893,220.564194 159.028473,220.312424 159.819336,220.115570 
	C159.608292,220.426285 159.106964,220.682083 158.316467,220.876907 
z"/>
<path fill="#3477C5" opacity="1.000000" stroke="none" 
	d="
M107.351410,191.904938 
	C107.578499,191.599930 108.108719,191.335861 108.947731,191.121918 
	C108.722527,191.429977 108.188530,191.687912 107.351410,191.904938 
z"/>
<path fill="#FDFDFD" opacity="1.000000" stroke="none" 
	d="
M207.214630,185.888855 
	C225.337006,192.212723 233.427948,205.712906 228.910065,222.639877 
	C226.021118,233.463745 218.792816,240.339066 207.746887,241.899353 
	C201.262527,242.815292 194.510406,241.983032 187.888184,241.708786 
	C184.895889,241.584869 183.318253,240.144394 183.482529,236.601578 
	C183.806152,229.622833 183.569504,222.618118 183.678680,214.754547 
	C183.667618,208.531418 183.022858,202.987534 189.250702,199.746399 
	C191.717972,197.781250 193.870209,195.915588 196.333099,193.970810 
	C197.763550,192.930145 198.883331,191.968567 200.320801,190.900360 
	C202.830536,189.158783 205.022583,187.523819 207.214630,185.888855 
z"/>
<path fill="#69A7F7" opacity="1.000000" stroke="none" 
	d="
M223.115097,144.943176 
	C223.629639,145.293015 224.144196,145.642853 224.959564,146.094696 
	C223.179810,148.661026 221.192429,151.212387 218.993393,153.566010 
	C216.630707,156.094757 214.073380,158.442017 211.593842,160.861130 
	C203.791504,168.473450 203.790192,168.472107 209.792358,178.101715 
	C211.445419,181.241104 210.621307,183.408020 207.254379,184.904205 
	C204.061050,179.887695 201.501160,174.913132 199.157806,169.750366 
	C199.905319,169.345703 200.436295,169.129227 200.967255,168.912750 
	C201.725159,167.808716 202.483063,166.704681 203.269379,165.020798 
	C208.237106,159.333374 213.176407,154.225800 218.398560,148.951492 
	C220.159302,147.504242 221.637207,146.223709 223.115097,144.943176 
z"/>
<path fill="#3E7CC9" opacity="1.000000" stroke="none" 
	d="
M198.941284,169.938553 
	C201.501160,174.913132 204.061050,179.887695 206.950455,185.033905 
	C207.279984,185.205551 207.354584,185.557449 207.284607,185.723145 
	C205.022583,187.523819 202.830536,189.158783 200.320831,190.474457 
	C199.599091,187.943741 199.228027,185.725662 198.783966,183.522278 
	C197.889282,179.082809 196.954849,174.651352 196.396606,170.149658 
	C197.484680,170.034653 198.212982,169.986603 198.941284,169.938553 
z"/>
<path fill="#1D6097" opacity="1.000000" stroke="none" 
	d="
M188.935669,199.845871 
	C183.022858,202.987534 183.667618,208.531418 183.628815,214.266556 
	C182.870575,211.752655 182.276276,208.857147 181.381531,206.074203 
	C182.678711,203.327988 184.216782,200.433655 185.895386,197.623260 
	C186.973831,195.817688 188.259094,194.135620 189.987061,192.419373 
	C189.993500,194.908981 189.464584,197.377426 188.935669,199.845871 
z"/>
<path fill="#5085CC" opacity="1.000000" stroke="none" 
	d="
M139.397079,180.089661 
	C137.002548,180.441238 134.919830,180.745224 132.440643,181.060913 
	C135.112869,177.114532 137.659241,172.543457 141.391113,169.363785 
	C145.452408,165.903412 150.614471,163.734985 155.944427,161.123138 
	C157.373856,161.884201 158.155487,162.525391 158.965088,163.548752 
	C158.666046,167.643082 158.339066,171.355270 158.012085,175.067444 
	C155.627808,175.739426 153.243515,176.411392 150.170334,177.090576 
	C148.980087,177.396652 148.478729,177.695511 147.977386,177.994370 
	C146.585190,178.342529 145.193008,178.690674 143.136902,179.057632 
	C141.971405,179.366058 141.469788,179.655670 140.968170,179.945282 
	C140.548401,179.977539 140.128647,180.009796 139.397079,180.089661 
z"/>
<path fill="#1764A0" opacity="1.000000" stroke="none" 
	d="
M158.937134,163.166595 
	C158.155487,162.525391 157.373856,161.884201 156.316315,161.118896 
	C157.131119,157.775711 158.084366,154.631210 162.685196,157.305130 
	C163.779053,157.940857 165.713852,157.129623 167.862198,156.914917 
	C168.753830,156.688553 168.920395,156.445679 168.962280,156.117279 
	C168.962280,156.117279 169.060501,156.121109 169.101135,156.092743 
	C174.467316,154.829605 179.792831,153.594833 185.679657,152.437393 
	C194.045486,150.760742 201.852905,149.019058 209.643661,147.205780 
	C209.942291,147.136276 210.080292,146.376663 210.293152,145.938614 
	C214.255463,145.303360 218.217789,144.668121 222.599915,144.043549 
	C223.019730,144.054214 223.004410,144.505188 223.059753,144.724182 
	C221.637207,146.223709 220.159302,147.504242 217.980835,148.899353 
	C214.251205,149.678268 211.218262,150.325500 208.193802,151.010208 
	C199.456329,152.988266 190.722290,154.981384 181.577942,156.981567 
	C173.758362,159.051895 166.347748,161.109253 158.937134,163.166595 
z"/>
<path fill="#5085CC" opacity="1.000000" stroke="none" 
	d="
M168.755905,156.189972 
	C168.920395,156.445679 168.753830,156.688553 168.239410,156.893097 
	C168.115753,156.652802 168.293518,156.426926 168.755905,156.189972 
z"/>
<path fill="#FDFDFD" opacity="1.000000" stroke="none" 
	d="
M169.813934,318.880981 
	C175.505249,320.687775 172.865677,325.010498 172.798965,328.144470 
	C172.772644,329.381470 169.889786,330.557678 168.307632,331.761566 
	C167.889771,331.448730 167.471909,331.135895 167.054047,330.823059 
	C167.054047,327.578400 166.905289,324.321991 167.159378,321.097351 
	C167.222366,320.298096 168.591095,319.601746 169.813934,318.880981 
z"/>
<path fill="#F2F6F9" opacity="1.000000" stroke="none" 
	d="
M213.205750,323.243622 
	C213.253754,320.849670 212.756470,318.136841 215.921036,318.963562 
	C217.498856,319.375763 219.774979,321.261139 219.849762,322.586517 
	C220.242462,329.548309 220.102707,336.545105 220.006577,343.527771 
	C219.945480,347.965393 216.790054,347.254486 213.205627,346.949707 
	C213.205627,339.184906 213.205627,331.449097 213.205750,323.243622 
z"/>
<path fill="#F2F6F9" opacity="1.000000" stroke="none" 
	d="
M363.874451,343.524597 
	C362.096497,345.362915 360.340363,346.747070 358.584198,348.131256 
	C358.185089,347.763458 357.785950,347.395660 357.386841,347.027863 
	C357.386841,337.729706 357.386841,328.431549 357.386841,319.136932 
	C363.329132,318.646088 363.858917,319.076263 363.894135,324.706512 
	C363.932434,330.827606 363.898651,336.949127 363.874451,343.524597 
z"/>
<path fill="#F2F6F9" opacity="1.000000" stroke="none" 
	d="
M147.947876,340.157959 
	C144.840149,340.588989 143.414871,339.901489 143.996460,336.806305 
	C144.816315,332.442993 145.405258,328.036285 146.092926,323.648102 
	C146.538193,323.618805 146.983459,323.589508 147.428726,323.560181 
	C147.758560,329.073547 148.088379,334.586914 147.947876,340.157959 
z"/>
<path fill="#F2F6F9" opacity="1.000000" stroke="none" 
	d="
M194.083878,328.942108 
	C194.647415,332.761292 195.169266,336.165527 195.748245,339.942383 
	C193.859268,340.067688 192.260132,340.173767 189.915359,340.329315 
	C190.737625,334.350983 191.513489,328.710022 192.289352,323.069061 
	C192.508194,323.031311 192.727020,322.993561 192.945847,322.955811 
	C193.311295,324.812927 193.676758,326.670044 194.083878,328.942108 
z"/>
<path fill="#F2F6F9" opacity="1.000000" stroke="none" 
	d="
M242.635468,322.690369 
	C242.646988,329.764984 242.856796,336.419373 242.492798,343.042206 
	C242.403778,344.661896 240.435593,346.178345 239.331406,347.742249 
	C238.224045,346.191315 236.248917,344.687897 236.160965,343.081146 
	C235.798355,336.458191 235.806046,329.793396 236.149826,323.168457 
	C236.236130,321.505707 238.076904,319.933990 239.111359,318.320404 
	C240.281723,319.633087 241.452103,320.945801 242.635468,322.690369 
z"/>
<path fill="#FDFDFD" opacity="1.000000" stroke="none" 
	d="
M127.283081,331.230530 
	C126.353973,331.748596 125.740471,332.021118 125.104088,332.094086 
	C124.298393,332.186432 123.474075,332.116425 122.348190,332.116425 
	C122.348190,327.780579 122.348190,323.593689 122.352966,319.403564 
	C127.602623,318.619995 128.031464,318.921112 128.037552,324.055420 
	C128.040253,326.335571 127.747299,328.616089 127.283081,331.230530 
z"/>
<path fill="#0C5696" opacity="1.000000" stroke="none" 
	d="
M189.022293,173.985352 
	C190.977692,180.870895 187.230377,185.926758 183.519180,190.960037 
	C179.012695,197.071884 174.325531,203.053513 169.929657,209.242859 
	C167.044891,213.304596 165.039352,213.998566 162.830002,210.451981 
	C157.393768,201.725372 149.461731,197.968994 139.541611,197.006561 
	C146.403809,195.893005 153.292465,196.158340 159.085831,200.178909 
	C165.053802,204.320679 166.278671,204.322357 171.640121,197.503265 
	C177.662537,189.843506 183.247192,181.839554 189.022293,173.985352 
z"/>
<path fill="#0E5590" opacity="1.000000" stroke="none" 
	d="
M189.074966,173.644043 
	C183.247192,181.839554 177.662537,189.843506 171.640121,197.503265 
	C166.278671,204.322357 165.053802,204.320679 159.085831,200.178909 
	C153.292465,196.158340 146.403809,195.893005 139.263153,196.719864 
	C137.889557,196.694321 136.792282,196.378189 135.350708,196.034546 
	C134.655273,194.927567 134.304153,193.848083 134.317749,192.433960 
	C142.612930,193.397690 150.613831,194.376175 158.450317,196.101410 
	C164.136963,197.353378 167.881058,195.267639 171.371185,191.200180 
	C175.347015,186.566666 179.758286,182.304550 183.688278,177.635223 
	C184.937531,176.150940 185.252335,173.880142 185.994736,171.969238 
	C190.813568,170.774353 195.632416,169.579468 200.709259,168.648651 
	C200.436295,169.129227 199.905319,169.345703 199.157806,169.750366 
	C198.212982,169.986603 197.484680,170.034653 196.128799,170.198578 
	C195.023590,170.578201 194.545975,170.841949 193.794022,171.176620 
	C193.018845,171.512970 192.517975,171.778397 192.017120,172.043839 
	C191.053955,172.463470 190.090805,172.883102 189.074966,173.644043 
z"/>
<path fill="#1D69B3" opacity="1.000000" stroke="none" 
	d="
M192.013672,172.501007 
	C192.517975,171.778397 193.018845,171.512970 193.776947,171.584595 
	C194.696945,179.297729 195.359695,186.673813 196.022461,194.049896 
	C193.870209,195.915588 191.717972,197.781250 189.250702,199.746399 
	C189.464584,197.377426 189.993500,194.908981 190.255554,192.224609 
	C189.993912,191.558914 189.999146,191.109131 190.295563,190.294678 
	C190.720886,189.291885 190.855026,188.653763 190.989166,188.015656 
	C191.329514,182.996490 191.669876,177.977341 192.013672,172.501007 
z"/>
<path fill="#1D6097" opacity="1.000000" stroke="none" 
	d="
M190.747589,188.179932 
	C190.855026,188.653763 190.720886,189.291885 190.296234,189.957428 
	C190.172485,189.437973 190.339249,188.891083 190.747589,188.179932 
z"/>
<path fill="#D7C170" opacity="1.000000" stroke="none" 
	d="
M209.859589,145.951019 
	C210.080292,146.376663 209.942291,147.136276 209.643661,147.205780 
	C201.852905,149.019058 194.045486,150.760742 185.979645,152.220795 
	C189.705917,150.831924 193.693466,149.736984 197.993317,148.410431 
	C202.012421,147.440338 205.719238,146.701889 209.859589,145.951019 
z"/>
<path fill="#023E76" opacity="1.000000" stroke="none" 
	d="
M185.591354,171.982697 
	C185.252335,173.880142 184.937531,176.150940 183.688278,177.635223 
	C179.758286,182.304550 175.347015,186.566666 171.371185,191.200180 
	C167.881058,195.267639 164.136963,197.353378 158.450317,196.101410 
	C150.613831,194.376175 142.612930,193.397690 134.284515,192.091522 
	C133.560181,190.989426 133.233826,189.895111 133.297287,188.452728 
	C141.614426,190.618973 149.574173,189.973572 157.749207,189.282364 
	C164.916092,188.676407 168.516251,184.047913 172.546631,179.537018 
	C173.050980,178.972534 172.207016,177.203369 171.987793,175.992386 
	C176.387848,174.660294 180.787918,173.328217 185.591354,171.982697 
z"/>
<path fill="#02376C" opacity="1.000000" stroke="none" 
	d="
M171.585754,176.004272 
	C172.207016,177.203369 173.050980,178.972534 172.546631,179.537018 
	C168.516251,184.047913 164.916092,188.676407 157.749207,189.282364 
	C149.574173,189.973572 141.614426,190.618973 133.280807,188.091614 
	C132.515869,187.620361 132.157257,187.162140 131.708008,186.409729 
	C140.670547,183.750488 149.717957,181.363113 158.779465,179.030502 
	C162.899826,177.969833 167.048111,177.017593 171.585754,176.004272 
z"/>
<path fill="#3477C5" opacity="1.000000" stroke="none" 
	d="
M181.986893,156.968582 
	C190.722290,154.981384 199.456329,152.988266 208.193802,151.010208 
	C211.218262,150.325500 214.251205,149.678268 217.697983,149.066071 
	C213.176407,154.225800 208.237106,159.333374 203.131958,164.732422 
	C197.391281,166.162613 191.819229,167.315292 186.239700,168.430466 
	C184.804871,168.717239 183.346436,168.885803 181.499832,168.771820 
	C181.232864,168.136307 181.287109,167.751648 181.508301,167.551529 
	C187.639130,162.004623 187.641922,162.007721 181.986893,156.968582 
z"/>
<path fill="#3E7CC9" opacity="1.000000" stroke="none" 
	d="
M181.577942,156.981567 
	C187.641922,162.007721 187.639130,162.004623 181.508301,167.551529 
	C181.287109,167.751648 181.232864,168.136307 181.078522,168.789429 
	C173.648041,171.118683 166.239853,173.093460 158.421875,175.067841 
	C158.339066,171.355270 158.666046,167.643082 158.965088,163.548767 
	C166.347748,161.109253 173.758362,159.051895 181.577942,156.981567 
z"/>
<path fill="#1D69B3" opacity="1.000000" stroke="none" 
	d="
M141.133636,180.176819 
	C141.469788,179.655670 141.971405,179.366058 142.777924,179.102203 
	C142.488281,179.554764 141.893707,179.981552 141.133636,180.176819 
z"/>
<path fill="#1D69B3" opacity="1.000000" stroke="none" 
	d="
M148.146835,178.216705 
	C148.478729,177.695511 148.980087,177.396652 149.788940,177.134109 
	C149.503067,177.593292 148.909683,178.016174 148.146835,178.216705 
z"/>
<path fill="#3477C5" opacity="1.000000" stroke="none" 
	d="
M196.333099,193.970795 
	C195.359695,186.673813 194.696945,179.297729 194.051270,171.513672 
	C194.545975,170.841949 195.023590,170.578201 195.769012,170.265518 
	C196.954849,174.651352 197.889282,179.082809 198.783966,183.522278 
	C199.228027,185.725662 199.599091,187.943741 200.003143,190.581085 
	C198.883331,191.968567 197.763550,192.930145 196.333099,193.970795 
z"/>
</svg>